<svg xmlns="http://www.w3.org/2000/svg" width="326.4766845703125" height="186.8065185546875" viewBox="-150.93356323242188 -80.4870376586914 326.4766845703125 186.8065185546875"><title>Neo4j Graph Visualization</title><desc>Created using Neo4j (http://www.neo4j.com/)</desc><g class="layer relationships"><g class="relationship" transform="translate(11.326735572499434 77.31948557488039) rotate(336.7149960903739)"><path class="outline" fill="#A5ABB6" stroke="none" d="M 25 0.5 L 47.32193318953661 0.5 L 47.32193318953661 -0.5 L 25 -0.5 Z M 92.88443318953661 0.5 L 115.20636637907322 0.5 L 115.20636637907322 3.5 L 122.20636637907322 0 L 115.20636637907322 -3.5 L 115.20636637907322 -0.5 L 92.88443318953661 -0.5 Z"/><text text-anchor="middle" pointer-events="none" font-size="8px" fill="#000000" x="70.10318318953661" y="3" font-family="sans-serif">ACTED_IN</text></g><g class="relationship" transform="translate(11.326735572499434 77.31948557488039) rotate(225.42345871902506)"><path class="outline" fill="#A5ABB6" stroke="none" d="M 25 0.5 L 58.12166101308024 0.5 L 58.12166101308024 -0.5 L 25 -0.5 Z M 103.68416101308024 0.5 L 136.80582202616048 0.5 L 136.80582202616048 3.5 L 143.80582202616048 0 L 136.80582202616048 -3.5 L 136.80582202616048 -0.5 L 103.68416101308024 -0.5 Z"/><text text-anchor="middle" pointer-events="none" font-size="8px" fill="#000000" x="80.90291101308024" y="3" transform="rotate(180 80.90291101308024 0)" font-family="sans-serif">ACTED_IN</text></g><g class="relationship" transform="translate(11.326735572499434 77.31948557488039) rotate(189.31984826177637)"><path class="outline" fill="#A5ABB6" stroke="none" d="M 25 0.5 L 41.240203693571516 0.5 L 41.240203693571516 -0.5 L 25 -0.5 Z M 86.80270369357152 0.5 L 103.04290738714303 0.5 L 103.04290738714303 3.5 L 110.04290738714303 0 L 103.04290738714303 -3.5 L 103.04290738714303 -0.5 L 86.80270369357152 -0.5 Z"/><text text-anchor="middle" pointer-events="none" font-size="8px" fill="#000000" x="64.02145369357152" y="3" transform="rotate(180 64.02145369357152 0)" font-family="sans-serif">ACTED_IN</text></g><g class="relationship" transform="translate(19.051896304588006 -51.487036636379365) rotate(388.981278541801)"><path class="outline" fill="#A5ABB6" stroke="none" d="M 25 0.5 L 46.58936308777834 0.5 L 46.58936308777834 -0.5 L 25 -0.5 Z M 92.15186308777834 0.5 L 113.74122617555668 0.5 L 113.74122617555668 3.5 L 120.74122617555668 0 L 113.74122617555668 -3.5 L 113.74122617555668 -0.5 L 92.15186308777834 -0.5 Z"/><text text-anchor="middle" pointer-events="none" font-size="8px" fill="#000000" x="69.37061308777834" y="3" font-family="sans-serif">ACTED_IN</text></g><g class="relationship" transform="translate(19.051896304588006 -51.487036636379365) rotate(536.1179982845897)"><path class="outline" fill="#A5ABB6" stroke="none" d="M 25 0.5 L 36.96559525665843 0.5 L 36.96559525665843 -0.5 L 25 -0.5 Z M 82.52809525665843 0.5 L 94.49369051331686 0.5 L 94.49369051331686 3.5 L 101.49369051331686 0 L 94.49369051331686 -3.5 L 94.49369051331686 -0.5 L 82.52809525665843 -0.5 Z"/><text text-anchor="middle" pointer-events="none" font-size="8px" fill="#000000" x="59.74684525665843" y="3" transform="rotate(180 59.74684525665843 0)" font-family="sans-serif">ACTED_IN</text></g><g class="relationship" transform="translate(19.051896304588006 -51.487036636379365) rotate(502.81982796291925)"><path class="outline" fill="#A5ABB6" stroke="none" d="M 25 0.5 L 62.19530264572239 0.5 L 62.19530264572239 -0.5 L 25 -0.5 Z M 107.75780264572239 0.5 L 144.95310529144479 0.5 L 144.95310529144479 3.5 L 151.95310529144479 0 L 144.95310529144479 -3.5 L 144.95310529144479 -0.5 L 107.75780264572239 -0.5 Z"/><text text-anchor="middle" pointer-events="none" font-size="8px" fill="#000000" x="84.97655264572239" y="3" transform="rotate(180 84.97655264572239 0)" font-family="sans-serif">ACTED_IN</text></g></g><g class="layer nodes"><g class="node" aria-label="graph-node4" transform="translate(11.326735572499434,77.31948557488039)"><circle class="outline" cx="0" cy="0" r="25" fill="#C990C0" stroke="#b261a5" stroke-width="2px"/><text class="caption" text-anchor="middle" pointer-events="none" x="0" y="0" font-size="10px" fill="#FFFFFF" font-family="sans-serif"> Hugo</text><text class="caption" text-anchor="middle" pointer-events="none" x="0" y="10" font-size="10px" fill="#FFFFFF" font-family="sans-serif"> Weavi…</text></g><g class="node" aria-label="graph-node10" transform="translate(146.543125224665,19.12805775287492)"><circle class="outline" cx="0" cy="0" r="25" fill="#F79767" stroke="#f36924" stroke-width="2px"/><text class="caption" text-anchor="middle" pointer-events="none" x="0" y="-5" font-size="10px" fill="#FFFFFF" font-family="sans-serif"> The</text><text class="caption" text-anchor="middle" pointer-events="none" x="0" y="5" font-size="10px" fill="#FFFFFF" font-family="sans-serif"> Matrix</text><text class="caption" text-anchor="middle" pointer-events="none" x="0" y="15" font-size="10px" fill="#FFFFFF" font-family="sans-serif"> Rev…</text></g><g class="node" aria-label="graph-node1" transform="translate(19.051896304588006,-51.487036636379365)"><circle class="outline" cx="0" cy="0" r="25" fill="#C990C0" stroke="#b261a5" stroke-width="2px"/><text class="caption" text-anchor="middle" pointer-events="none" x="0" y="0" font-size="10px" fill="#FFFFFF" font-family="sans-serif"> Keanu</text><text class="caption" text-anchor="middle" pointer-events="none" x="0" y="10" font-size="10px" fill="#FFFFFF" font-family="sans-serif"> Reeves</text></g><g class="node" aria-label="graph-node9" transform="translate(-107.1515664790944,-42.923175294293095)"><circle class="outline" cx="0" cy="0" r="25" fill="#F79767" stroke="#f36924" stroke-width="2px"/><text class="caption" text-anchor="middle" pointer-events="none" x="0" y="-5" font-size="10px" fill="#FFFFFF" font-family="sans-serif"> The</text><text class="caption" text-anchor="middle" pointer-events="none" x="0" y="5" font-size="10px" fill="#FFFFFF" font-family="sans-serif"> Matrix</text><text class="caption" text-anchor="middle" pointer-events="none" x="0" y="15" font-size="10px" fill="#FFFFFF" font-family="sans-serif"> Rel…</text></g><g class="node" aria-label="graph-node0" transform="translate(-121.93356152109003,55.44987071542836)"><circle class="outline" cx="0" cy="0" r="25" fill="#F79767" stroke="#f36924" stroke-width="2px"/><text class="caption" text-anchor="middle" pointer-events="none" x="0" y="0" font-size="10px" fill="#FFFFFF" font-family="sans-serif"> The</text><text class="caption" text-anchor="middle" pointer-events="none" x="0" y="10" font-size="10px" fill="#FFFFFF" font-family="sans-serif"> Matrix</text></g></g></svg>