<svg xmlns="http://www.w3.org/2000/svg" width="590.8572387695312" height="551.1698608398438" viewBox="-262.9521789550781 -227.7014617919922 590.8572387695312 551.1698608398438"><title>Neo4j Graph Visualization</title><desc>Created using Neo4j (http://www.neo4j.com/)</desc><g class="layer relationships"><g class="relationship" transform="translate(106.82994581264145 294.4684083164036) rotate(261.8322853991929)"><path class="outline" fill="#A5ABB6" stroke="none" d="M 25 0.5 L 46.83495892454755 0.5 L 46.83495892454755 -0.5 L 25 -0.5 Z M 92.39745892454755 0.5 L 114.2324178490951 0.5 L 114.2324178490951 3.5 L 121.2324178490951 0 L 114.2324178490951 -3.5 L 114.2324178490951 -0.5 L 92.39745892454755 -0.5 Z"/><text text-anchor="middle" pointer-events="none" font-size="8px" fill="#000000" x="69.61620892454755" y="3" transform="rotate(180 69.61620892454755 0)" font-family="sans-serif">ACTED_IN</text></g><g class="relationship" transform="translate(-110.9639691094789 65.4318486039391) rotate(505.5159405913285)"><path class="outline" fill="#A5ABB6" stroke="none" d="M 25 0.5 L 47.026616963999345 0.5 L 47.026616963999345 -0.5 L 25 -0.5 Z M 92.58911696399934 0.5 L 114.61573392799869 0.5 L 114.61573392799869 3.5 L 121.61573392799869 0 L 114.61573392799869 -3.5 L 114.61573392799869 -0.5 L 92.58911696399934 -0.5 Z"/><text text-anchor="middle" pointer-events="none" font-size="8px" fill="#000000" x="69.80786696399934" y="3" transform="rotate(180 69.80786696399934 0)" font-family="sans-serif">ACTED_IN</text></g><g class="relationship" transform="translate(-110.9639691094789 65.4318486039391) rotate(214.16472515670614)"><path class="outline" fill="#A5ABB6" stroke="none" d="M 25 0.5 L 48.03847616016263 0.5 L 48.03847616016263 -0.5 L 25 -0.5 Z M 93.60097616016263 0.5 L 116.63945232032526 0.5 L 116.63945232032526 3.5 L 123.63945232032526 0 L 116.63945232032526 -3.5 L 116.63945232032526 -0.5 L 93.60097616016263 -0.5 Z"/><text text-anchor="middle" pointer-events="none" font-size="8px" fill="#000000" x="70.81972616016263" y="3" transform="rotate(180 70.81972616016263 0)" font-family="sans-serif">ACTED_IN</text></g><g class="relationship" transform="translate(-110.9639691094789 65.4318486039391) rotate(358.3456857857374)"><path class="outline" fill="#A5ABB6" stroke="none" d="M 25 0.5 L 49.826354287971654 0.5 L 49.826354287971654 -0.5 L 25 -0.5 Z M 95.38885428797165 0.5 L 120.21520857594331 0.5 L 120.21520857594331 3.5 L 127.21520857594331 0 L 120.21520857594331 -3.5 L 120.21520857594331 -0.5 L 95.38885428797165 -0.5 Z"/><text text-anchor="middle" pointer-events="none" font-size="8px" fill="#000000" x="72.60760428797165" y="3" font-family="sans-serif">ACTED_IN</text></g><g class="relationship" transform="translate(-110.9639691094789 65.4318486039391) rotate(319.1701919235387)"><path class="outline" fill="#A5ABB6" stroke="none" d="M 25 0.5 L 45.20114978274377 0.5 L 45.20114978274377 -0.5 L 25 -0.5 Z M 90.76364978274377 0.5 L 110.96479956548754 0.5 L 110.96479956548754 3.5 L 117.96479956548754 0 L 110.96479956548754 -3.5 L 110.96479956548754 -0.5 L 90.76364978274377 -0.5 Z"/><text text-anchor="middle" pointer-events="none" font-size="8px" fill="#000000" x="67.98239978274377" y="3" font-family="sans-serif">ACTED_IN</text></g><g class="relationship" transform="translate(-110.9639691094789 65.4318486039391) rotate(383.16196263976127)"><path class="outline" fill="#A5ABB6" stroke="none" d="M 25 0.5 L 80.86428864432966 0.5 L 80.86428864432966 -0.5 L 25 -0.5 Z M 126.42678864432966 0.5 L 182.29107728865932 0.5 L 182.29107728865932 3.5 L 189.29107728865932 0 L 182.29107728865932 -3.5 L 182.29107728865932 -0.5 L 126.42678864432966 -0.5 Z"/><text text-anchor="middle" pointer-events="none" font-size="8px" fill="#000000" x="103.64553864432966" y="3" font-family="sans-serif">ACTED_IN</text></g><g class="relationship" transform="translate(174.5490553910734 47.47814901755454) rotate(534.1944622535084)"><path class="outline" fill="#A5ABB6" stroke="none" d="M 25 0.5 L 40.74315220901431 0.5 L 40.74315220901431 -0.5 L 25 -0.5 Z M 86.30565220901431 0.5 L 102.04880441802862 0.5 L 102.04880441802862 3.5 L 109.04880441802862 0 L 102.04880441802862 -3.5 L 102.04880441802862 -0.5 L 86.30565220901431 -0.5 Z"/><text text-anchor="middle" pointer-events="none" font-size="8px" fill="#000000" x="63.52440220901431" y="3" transform="rotate(180 63.52440220901431 0)" font-family="sans-serif">ACTED_IN</text></g><g class="relationship" transform="translate(174.5490553910734 47.47814901755454) rotate(203.06655287003787)"><path class="outline" fill="#A5ABB6" stroke="none" d="M 25 0.5 L 70.0928169776621 0.5 L 70.0928169776621 -0.5 L 25 -0.5 Z M 115.6553169776621 0.5 L 160.7481339553242 0.5 L 160.7481339553242 3.5 L 167.7481339553242 0 L 160.7481339553242 -3.5 L 160.7481339553242 -0.5 L 115.6553169776621 -0.5 Z"/><text text-anchor="middle" pointer-events="none" font-size="8px" fill="#000000" x="92.8740669776621" y="3" transform="rotate(180 92.8740669776621 0)" font-family="sans-serif">ACTED_IN</text></g><g class="relationship" transform="translate(174.5490553910734 47.47814901755454) rotate(490.8777260959456)"><path class="outline" fill="#A5ABB6" stroke="none" d="M 25 0.5 L 41.328910047820855 0.5 L 41.328910047820855 -0.5 L 25 -0.5 Z M 86.89141004782086 0.5 L 103.22032009564171 0.5 L 103.22032009564171 3.5 L 110.22032009564171 0 L 103.22032009564171 -3.5 L 103.22032009564171 -0.5 L 86.89141004782086 -0.5 Z"/><text text-anchor="middle" pointer-events="none" font-size="8px" fill="#000000" x="64.11016004782086" y="3" transform="rotate(180 64.11016004782086 0)" font-family="sans-serif">ACTED_IN</text></g><g class="relationship" transform="translate(-58.175054399603404 149.74931156366185) rotate(318.24131532336884)"><path class="outline" fill="#A5ABB6" stroke="none" d="M 25 0.5 L 40.31972395109908 0.5 L 40.31972395109908 -0.5 L 25 -0.5 Z M 85.88222395109908 0.5 L 101.20194790219816 0.5 L 101.20194790219816 3.5 L 108.20194790219816 0 L 101.20194790219816 -3.5 L 101.20194790219816 -0.5 L 85.88222395109908 -0.5 Z"/><text text-anchor="middle" pointer-events="none" font-size="8px" fill="#000000" x="63.10097395109908" y="3" font-family="sans-serif">ACTED_IN</text></g><g class="relationship" transform="translate(-58.175054399603404 149.74931156366185) rotate(287.3031521496455)"><path class="outline" fill="#A5ABB6" stroke="none" d="M 25 0.5 L 66.82738315777262 0.5 L 66.82738315777262 -0.5 L 25 -0.5 Z M 112.38988315777262 0.5 L 154.21726631554523 0.5 L 154.21726631554523 3.5 L 161.21726631554523 0 L 154.21726631554523 -3.5 L 154.21726631554523 -0.5 L 112.38988315777262 -0.5 Z"/><text text-anchor="middle" pointer-events="none" font-size="8px" fill="#000000" x="89.60863315777262" y="3" font-family="sans-serif">ACTED_IN</text></g><g class="relationship" transform="translate(-58.175054399603404 149.74931156366185) rotate(359.9880806852532)"><path class="outline" fill="#A5ABB6" stroke="none" d="M 25 0.5 L 45.83354518311734 0.5 L 45.83354518311734 -0.5 L 25 -0.5 Z M 91.39604518311734 0.5 L 112.22959036623467 0.5 L 112.22959036623467 3.5 L 119.22959036623467 0 L 112.22959036623467 -3.5 L 112.22959036623467 -0.5 L 91.39604518311734 -0.5 Z"/><text text-anchor="middle" pointer-events="none" font-size="8px" fill="#000000" x="68.61479518311734" y="3" font-family="sans-serif">ACTED_IN</text></g><g class="relationship" transform="translate(149.37660686137616 -48.842127121985826) rotate(355.8952846551167)"><path class="outline" fill="#A5ABB6" stroke="none" d="M 25 0.5 L 48.67524062793842 0.5 L 48.67524062793842 -0.5 L 25 -0.5 Z M 94.23774062793842 0.5 L 117.91298125587684 0.5 L 117.91298125587684 3.5 L 124.91298125587684 0 L 117.91298125587684 -3.5 L 117.91298125587684 -0.5 L 94.23774062793842 -0.5 Z"/><text text-anchor="middle" pointer-events="none" font-size="8px" fill="#000000" x="71.45649062793842" y="3" font-family="sans-serif">ACTED_IN</text></g><g class="relationship" transform="translate(149.37660686137616 -48.842127121985826) rotate(308.7637748123364)"><path class="outline" fill="#A5ABB6" stroke="none" d="M 25 0.5 L 48.590083816576154 0.5 L 48.590083816576154 -0.5 L 25 -0.5 Z M 94.15258381657615 0.5 L 117.74266763315231 0.5 L 117.74266763315231 3.5 L 124.74266763315231 0 L 117.74266763315231 -3.5 L 117.74266763315231 -0.5 L 94.15258381657615 -0.5 Z"/><text text-anchor="middle" pointer-events="none" font-size="8px" fill="#000000" x="71.37133381657615" y="3" font-family="sans-serif">ACTED_IN</text></g><g class="relationship" transform="translate(149.37660686137616 -48.842127121985826) rotate(230.17021370310778)"><path class="outline" fill="#A5ABB6" stroke="none" d="M 25 0.5 L 48.689897768899286 0.5 L 48.689897768899286 -0.5 L 25 -0.5 Z M 94.25239776889929 0.5 L 117.94229553779857 0.5 L 117.94229553779857 3.5 L 124.94229553779857 0 L 117.94229553779857 -3.5 L 117.94229553779857 -0.5 L 94.25239776889929 -0.5 Z"/><text text-anchor="middle" pointer-events="none" font-size="8px" fill="#000000" x="71.47114776889929" y="3" transform="rotate(180 71.47114776889929 0)" font-family="sans-serif">ACTED_IN</text></g><g class="relationship" transform="translate(149.37660686137616 -48.842127121985826) rotate(269.03952787293963)"><path class="outline" fill="#A5ABB6" stroke="none" d="M 25 0.5 L 48.65894536061995 0.5 L 48.65894536061995 -0.5 L 25 -0.5 Z M 94.22144536061995 0.5 L 117.8803907212399 0.5 L 117.8803907212399 3.5 L 124.8803907212399 0 L 117.8803907212399 -3.5 L 117.8803907212399 -0.5 L 94.22144536061995 -0.5 Z"/><text text-anchor="middle" pointer-events="none" font-size="8px" fill="#000000" x="71.44019536061995" y="3" transform="rotate(180 71.44019536061995 0)" font-family="sans-serif">ACTED_IN</text></g><g class="relationship" transform="translate(149.37660686137616 -48.842127121985826) rotate(494.5557564124475)"><path class="outline" fill="#A5ABB6" stroke="none" d="M 25 0.5 L 50.81990838396072 0.5 L 50.81990838396072 -0.5 L 25 -0.5 Z M 96.38240838396072 0.5 L 122.20231676792145 0.5 L 122.20231676792145 3.5 L 129.20231676792145 0 L 122.20231676792145 -3.5 L 122.20231676792145 -0.5 L 96.38240838396072 -0.5 Z"/><text text-anchor="middle" pointer-events="none" font-size="8px" fill="#000000" x="73.60115838396072" y="3" transform="rotate(180 73.60115838396072 0)" font-family="sans-serif">ACTED_IN</text></g><g class="relationship" transform="translate(149.37660686137616 -48.842127121985826) rotate(532.2157260843054)"><path class="outline" fill="#A5ABB6" stroke="none" d="M 25 0.5 L 50.50914130267289 0.5 L 50.50914130267289 -0.5 L 25 -0.5 Z M 96.07164130267289 0.5 L 121.58078260534577 0.5 L 121.58078260534577 3.5 L 128.58078260534577 0 L 121.58078260534577 -3.5 L 121.58078260534577 -0.5 L 96.07164130267289 -0.5 Z"/><text text-anchor="middle" pointer-events="none" font-size="8px" fill="#000000" x="73.29039130267289" y="3" transform="rotate(180 73.29039130267289 0)" font-family="sans-serif">ACTED_IN</text></g><g class="relationship" transform="translate(149.37660686137616 -48.842127121985826) rotate(467.6877004080019)"><path class="outline" fill="#A5ABB6" stroke="none" d="M 25 0.5 L 77.92566951113925 0.5 L 77.92566951113925 -0.5 L 25 -0.5 Z M 123.48816951113925 0.5 L 176.4138390222785 0.5 L 176.4138390222785 3.5 L 183.4138390222785 0 L 176.4138390222785 -3.5 L 176.4138390222785 -0.5 L 123.48816951113925 -0.5 Z"/><text text-anchor="middle" pointer-events="none" font-size="8px" fill="#000000" x="100.70691951113925" y="3" transform="rotate(180 100.70691951113925 0)" font-family="sans-serif">ACTED_IN</text></g></g><g class="layer nodes"><g class="node" aria-label="graph-node0" transform="translate(86.0545328457181,149.7193072965833)"><circle class="outline" cx="0" cy="0" r="25" fill="#F79767" stroke="#f36924" stroke-width="2px"/><text class="caption" text-anchor="middle" pointer-events="none" x="0" y="0" font-size="10px" fill="#FFFFFF" font-family="sans-serif"> The</text><text class="caption" text-anchor="middle" pointer-events="none" x="0" y="10" font-size="10px" fill="#FFFFFF" font-family="sans-serif"> Matrix</text></g><g class="node" aria-label="graph-node8" transform="translate(106.82994581264145,294.4684083164036)"><circle class="outline" cx="0" cy="0" r="25" fill="#C990C0" stroke="#b261a5" stroke-width="2px"/><text class="caption" text-anchor="middle" pointer-events="none" x="0" y="0" font-size="10px" fill="#FFFFFF" font-family="sans-serif"> Emil</text><text class="caption" text-anchor="middle" pointer-events="none" x="0" y="10" font-size="10px" fill="#FFFFFF" font-family="sans-serif"> Eifrem</text></g><g class="node" aria-label="graph-node4" transform="translate(-110.9639691094789,65.4318486039391)"><circle class="outline" cx="0" cy="0" r="25" fill="#C990C0" stroke="#b261a5" stroke-width="2px"/><text class="caption" text-anchor="middle" pointer-events="none" x="0" y="0" font-size="10px" fill="#FFFFFF" font-family="sans-serif"> Hugo</text><text class="caption" text-anchor="middle" pointer-events="none" x="0" y="10" font-size="10px" fill="#FFFFFF" font-family="sans-serif"> Weavi…</text></g><g class="node" aria-label="graph-node3" transform="translate(174.5490553910734,47.47814901755454)"><circle class="outline" cx="0" cy="0" r="25" fill="#C990C0" stroke="#b261a5" stroke-width="2px"/><text class="caption" text-anchor="middle" pointer-events="none" x="0" y="0" font-size="10px" fill="#FFFFFF" font-family="sans-serif"> Laurence</text><text class="caption" text-anchor="middle" pointer-events="none" x="0" y="10" font-size="10px" fill="#FFFFFF" font-family="sans-serif"> Fishb…</text></g><g class="node" aria-label="graph-node2" transform="translate(-58.175054399603404,149.74931156366185)"><circle class="outline" cx="0" cy="0" r="25" fill="#C990C0" stroke="#b261a5" stroke-width="2px"/><text class="caption" text-anchor="middle" pointer-events="none" x="0" y="5" font-size="10px" fill="#FFFFFF" font-family="sans-serif"> Carrie-A…</text></g><g class="node" aria-label="graph-node1" transform="translate(149.37660686137616,-48.842127121985826)"><circle class="outline" cx="0" cy="0" r="25" fill="#C990C0" stroke="#b261a5" stroke-width="2px"/><text class="caption" text-anchor="middle" pointer-events="none" x="0" y="0" font-size="10px" fill="#FFFFFF" font-family="sans-serif"> Keanu</text><text class="caption" text-anchor="middle" pointer-events="none" x="0" y="10" font-size="10px" fill="#FFFFFF" font-family="sans-serif"> Reeves</text></g><g class="node" aria-label="graph-node9" transform="translate(-2.788937013480364,-28.040587685213637)"><circle class="outline" cx="0" cy="0" r="25" fill="#F79767" stroke="#f36924" stroke-width="2px"/><text class="caption" text-anchor="middle" pointer-events="none" x="0" y="-5" font-size="10px" fill="#FFFFFF" font-family="sans-serif"> The</text><text class="caption" text-anchor="middle" pointer-events="none" x="0" y="5" font-size="10px" fill="#FFFFFF" font-family="sans-serif"> Matrix</text><text class="caption" text-anchor="middle" pointer-events="none" x="0" y="15" font-size="10px" fill="#FFFFFF" font-family="sans-serif"> Rel…</text></g><g class="node" aria-label="graph-node10" transform="translate(41.187795749674336,61.03751451754124)"><circle class="outline" cx="0" cy="0" r="25" fill="#F79767" stroke="#f36924" stroke-width="2px"/><text class="caption" text-anchor="middle" pointer-events="none" x="0" y="-5" font-size="10px" fill="#FFFFFF" font-family="sans-serif"> The</text><text class="caption" text-anchor="middle" pointer-events="none" x="0" y="5" font-size="10px" fill="#FFFFFF" font-family="sans-serif"> Matrix</text><text class="caption" text-anchor="middle" pointer-events="none" x="0" y="15" font-size="10px" fill="#FFFFFF" font-family="sans-serif"> Rev…</text></g><g class="node" aria-label="graph-node11" transform="translate(146.86421944325053,-198.7014592712143)"><circle class="outline" cx="0" cy="0" r="25" fill="#F79767" stroke="#f36924" stroke-width="2px"/><text class="caption" text-anchor="middle" pointer-events="none" x="0" y="-5" font-size="10px" fill="#FFFFFF" font-family="sans-serif"> The</text><text class="caption" text-anchor="middle" pointer-events="none" x="0" y="5" font-size="10px" fill="#FFFFFF" font-family="sans-serif"> Devil's</text><text class="caption" text-anchor="middle" pointer-events="none" x="0" y="15" font-size="10px" fill="#FFFFFF" font-family="sans-serif"> Adv…</text></g><g class="node" aria-label="graph-node87" transform="translate(243.1321308486945,-165.60157312853426)"><circle class="outline" cx="0" cy="0" r="25" fill="#F79767" stroke="#f36924" stroke-width="2px"/><text class="caption" text-anchor="middle" pointer-events="none" x="0" y="0" font-size="10px" fill="#FFFFFF" font-family="sans-serif"> The</text><text class="caption" text-anchor="middle" pointer-events="none" x="0" y="10" font-size="10px" fill="#FFFFFF" font-family="sans-serif"> Repla…</text></g><g class="node" aria-label="graph-node100" transform="translate(53.33721413210835,-163.99040993739735)"><circle class="outline" cx="0" cy="0" r="25" fill="#F79767" stroke="#f36924" stroke-width="2px"/><text class="caption" text-anchor="middle" pointer-events="none" x="0" y="0" font-size="10px" fill="#FFFFFF" font-family="sans-serif"> Johnny</text><text class="caption" text-anchor="middle" pointer-events="none" x="0" y="10" font-size="10px" fill="#FFFFFF" font-family="sans-serif"> Mnem…</text></g><g class="node" aria-label="graph-node105" transform="translate(-231.81693459849768,148.44229474028833)"><circle class="outline" cx="0" cy="0" r="25" fill="#F79767" stroke="#f36924" stroke-width="2px"/><text class="caption" text-anchor="middle" pointer-events="none" x="0" y="0" font-size="10px" fill="#FFFFFF" font-family="sans-serif"> Cloud</text><text class="caption" text-anchor="middle" pointer-events="none" x="0" y="10" font-size="10px" fill="#FFFFFF" font-family="sans-serif"> Atlas</text></g><g class="node" aria-label="graph-node116" transform="translate(-233.95218658982327,-18.04021347130713)"><circle class="outline" cx="0" cy="0" r="25" fill="#F79767" stroke="#f36924" stroke-width="2px"/><text class="caption" text-anchor="middle" pointer-events="none" x="0" y="0" font-size="10px" fill="#FFFFFF" font-family="sans-serif"> V for</text><text class="caption" text-anchor="middle" pointer-events="none" x="0" y="10" font-size="10px" fill="#FFFFFF" font-family="sans-serif"> Vende…</text></g><g class="node" aria-label="graph-node154" transform="translate(298.9050456447481,-59.57282812575408)"><circle class="outline" cx="0" cy="0" r="25" fill="#F79767" stroke="#f36924" stroke-width="2px"/><text class="caption" text-anchor="middle" pointer-events="none" x="0" y="5" font-size="10px" fill="#FFFFFF" font-family="sans-serif"> Somethi…</text></g></g></svg>