<svg xmlns="http://www.w3.org/2000/svg" width="403.5633850097656" height="478.6284484863281" viewBox="-84.91281127929688 -245.86590576171875 403.5633850097656 478.6284484863281"><title>Neo4j Graph Visualization</title><desc>Created using Neo4j (http://www.neo4j.com/)</desc><g class="layer relationships"><g class="relationship" transform="translate(121.01486197942423 203.7625631907074) rotate(289.98753143508753)"><path class="outline" fill="#A5ABB6" stroke="none" d="M 25 0.5 L 47.212170403354534 0.5 L 47.212170403354534 -0.5 L 25 -0.5 Z M 94.10279540335453 0.5 L 116.31496580670907 0.5 L 116.31496580670907 3.5 L 123.31496580670907 0 L 116.31496580670907 -3.5 L 116.31496580670907 -0.5 L 94.10279540335453 -0.5 Z"/><text text-anchor="middle" pointer-events="none" font-size="8px" fill="#000000" x="70.65748290335453" y="3" font-family="sans-serif">DIRECTED</text></g><g class="relationship" transform="translate(58.01013023246389 -21.942386835022187) rotate(344.0618879937233)"><path class="outline" fill="#A5ABB6" stroke="none" d="M 24.018736134675446,6.953439040707552 L 24.277555179777966,5.987513214418485 A 368.38398865601056 368.38398865601056 0 0 0 91.10058475266769,17.43409908156059 L 91.0231607508641,18.43109733830164 A 369.38398865601056 369.38398865601056 0 0 1 24.018736134675446,6.953439040707552 Z M 142.83065028730888,18.810086369061537 L 142.76782053928173,17.812062109455155 A 368.38398865601056 368.38398865601056 0 0 0 209.7511607569286,7.344314376531769 L 209.0171808649336,4.435487548041118 L 216.6607533387393,6.116499099958501 L 210.72980061292196,11.222750147852636 L 209.99582072092696,8.313923319361987 A 369.38398865601056 369.38398865601056 0 0 1 142.83065028730888,18.810086369061537"/><text text-anchor="middle" pointer-events="none" font-size="8px" fill="#000000" x="116.9239103911433" y="22.03002338595195" font-family="sans-serif">PRODUCED</text></g><g class="relationship" transform="translate(58.01013023246389 -21.942386835022187) rotate(344.0618879937233)"><path class="outline" fill="#A5ABB6" stroke="none" d="M 24.018736134675446,-6.953439040707552 L 24.277555179777966,-5.987513214418485 A 368.38398865601056 368.38398865601056 0 0 1 99.07573738315547,-17.96645352732378 L 99.0199624021456,-18.96489689151292 A 369.38398865601056 369.38398865601056 0 0 0 24.018736134675446,-6.953439040707552 Z M 134.82689504851945,-19.22683652262714 L 134.78573314610713,-18.227684032869035 A 368.38398865601056 368.38398865601056 0 0 1 209.7511607569286,-7.344314376531769 L 209.0171808649336,-4.435487548041118 L 216.6607533387393,-6.116499099958501 L 210.72980061292196,-11.222750147852636 L 209.99582072092696,-8.313923319361987 A 369.38398865601056 369.38398865601056 0 0 0 134.82689504851945,-19.22683652262714"/><text text-anchor="middle" pointer-events="none" font-size="8px" fill="#000000" x="116.92391039114331" y="-16.03002338595195" font-family="sans-serif">WROTE</text></g><g class="relationship" transform="translate(58.01013023246389 -21.942386835022187) rotate(397.2062651999741)"><path class="outline" fill="#A5ABB6" stroke="none" d="M 25 0.5 L 44.43339093964072 0.5 L 44.43339093964072 -0.5 L 25 -0.5 Z M 91.32401593964072 0.5 L 110.75740687928143 0.5 L 110.75740687928143 3.5 L 117.75740687928143 0 L 110.75740687928143 -3.5 L 110.75740687928143 -0.5 L 91.32401593964072 -0.5 Z"/><text text-anchor="middle" pointer-events="none" font-size="8px" fill="#000000" x="67.87870343964072" y="3" font-family="sans-serif">DIRECTED</text></g><g class="relationship" transform="translate(58.01013023246389 -21.942386835022187) rotate(246.1156977539269)"><path class="outline" fill="#A5ABB6" stroke="none" d="M 25 0.5 L 50.70405262568973 0.5 L 50.70405262568973 -0.5 L 25 -0.5 Z M 97.59467762568973 0.5 L 123.29873025137945 0.5 L 123.29873025137945 3.5 L 130.29873025137945 0 L 123.29873025137945 -3.5 L 123.29873025137945 -0.5 L 97.59467762568973 -0.5 Z"/><text text-anchor="middle" pointer-events="none" font-size="8px" fill="#000000" x="74.14936512568973" y="3" transform="rotate(180 74.14936512568973 0)" font-family="sans-serif">DIRECTED</text></g><g class="relationship" transform="translate(58.01013023246389 -21.942386835022187) rotate(206.4192075686364)"><path class="outline" fill="#A5ABB6" stroke="none" d="M 25 0.5 L 36.65880319209757 0.5 L 36.65880319209757 -0.5 L 25 -0.5 Z M 83.54942819209757 0.5 L 95.20823138419514 0.5 L 95.20823138419514 3.5 L 102.20823138419514 0 L 95.20823138419514 -3.5 L 95.20823138419514 -0.5 L 83.54942819209757 -0.5 Z"/><text text-anchor="middle" pointer-events="none" font-size="8px" fill="#000000" x="60.10411569209757" y="3" transform="rotate(180 60.10411569209757 0)" font-family="sans-serif">DIRECTED</text></g><g class="relationship" transform="translate(58.01013023246389 -21.942386835022187) rotate(447.2880746778469)"><path class="outline" fill="#A5ABB6" stroke="none" d="M 25 0.5 L 26.92879430643069 0.5 L 26.92879430643069 -0.5 L 25 -0.5 Z M 73.81941930643069 0.5 L 75.74821361286138 0.5 L 75.74821361286138 3.5 L 82.74821361286138 0 L 75.74821361286138 -3.5 L 75.74821361286138 -0.5 L 73.81941930643069 -0.5 Z"/><text text-anchor="middle" pointer-events="none" font-size="8px" fill="#000000" x="50.37410680643069" y="3" font-family="sans-serif">DIRECTED</text></g><g class="relationship" transform="translate(126.17564047009793 -93.5258736921923) rotate(361.90326408344333)"><path class="outline" fill="#A5ABB6" stroke="none" d="M 24.018736134675446,6.953439040707552 L 24.277555179777966,5.987513214418485 A 217.46987293848144 217.46987293848144 0 0 0 52.49706407133964,11.578979951450577 L 52.36800786883346,12.570617232211362 A 218.46987293848144 218.46987293848144 0 0 1 24.018736134675446,6.953439040707552 Z M 104.14315403067253,13.121339878297476 L 104.03522036603846,12.127181780186987 A 217.46987293848144 217.46987293848144 0 0 0 132.3672817027778,7.137243627914567 L 131.65263951849948,4.223605601589076 L 139.28487746158368,5.95535153565272 L 133.32013794848223,11.022094329681888 L 132.6054957642039,8.108456303356398 A 218.46987293848144 218.46987293848144 0 0 1 104.14315403067253,13.121339878297476"/><text text-anchor="middle" pointer-events="none" font-size="8px" fill="#000000" x="78.24452598913534" y="16.88528973277849" font-family="sans-serif">PRODUCED</text></g><g class="relationship" transform="translate(126.17564047009793 -93.5258736921923) rotate(361.90326408344333)"><path class="outline" fill="#A5ABB6" stroke="none" d="M 24.018736134675446,-6.953439040707552 L 24.277555179777966,-5.987513214418485 A 217.46987293848144 217.46987293848144 0 0 1 60.43296938673977,-12.463959474943579 L 60.34040515991818,-13.459666190755485 A 218.46987293848144 218.46987293848144 0 0 0 24.018736134675446,-6.953439040707552 Z M 96.1536493999844,-13.840605040665565 L 96.08228601629217,-12.843154657203826 A 217.46987293848144 217.46987293848144 0 0 1 132.3672817027778,-7.137243627914567 L 131.65263951849948,-4.223605601589076 L 139.28487746158368,-5.95535153565272 L 133.32013794848223,-11.022094329681888 L 132.6054957642039,-8.108456303356398 A 218.46987293848144 218.46987293848144 0 0 0 96.1536493999844,-13.840605040665565"/><text text-anchor="middle" pointer-events="none" font-size="8px" fill="#000000" x="78.24452598913533" y="-10.885289732778489" font-family="sans-serif">WROTE</text></g><g class="relationship" transform="translate(126.17564047009793 -93.5258736921923) rotate(433.9140331654586)"><path class="outline" fill="#A5ABB6" stroke="none" d="M 25 0.5 L 55.22537366661713 0.5 L 55.22537366661713 -0.5 L 25 -0.5 Z M 102.11599866661713 0.5 L 132.34137233323426 0.5 L 132.34137233323426 3.5 L 139.34137233323426 0 L 132.34137233323426 -3.5 L 132.34137233323426 -0.5 L 102.11599866661713 -0.5 Z"/><text text-anchor="middle" pointer-events="none" font-size="8px" fill="#000000" x="78.67068616661713" y="3" font-family="sans-serif">DIRECTED</text></g><g class="relationship" transform="translate(126.17564047009793 -93.5258736921923) rotate(208.25116387016794)"><path class="outline" fill="#A5ABB6" stroke="none" d="M 25 0.5 L 47.43735867152813 0.5 L 47.43735867152813 -0.5 L 25 -0.5 Z M 94.32798367152813 0.5 L 116.76534234305626 0.5 L 116.76534234305626 3.5 L 123.76534234305626 0 L 116.76534234305626 -3.5 L 116.76534234305626 -0.5 L 94.32798367152813 -0.5 Z"/><text text-anchor="middle" pointer-events="none" font-size="8px" fill="#000000" x="70.88267117152813" y="3" transform="rotate(180 70.88267117152813 0)" font-family="sans-serif">DIRECTED</text></g><g class="relationship" transform="translate(126.17564047009793 -93.5258736921923) rotate(535.2957362247696)"><path class="outline" fill="#A5ABB6" stroke="none" d="M 25 0.5 L 64.40665177789117 0.5 L 64.40665177789117 -0.5 L 25 -0.5 Z M 111.29727677789117 0.5 L 150.70392855578234 0.5 L 150.70392855578234 3.5 L 157.70392855578234 0 L 150.70392855578234 -3.5 L 150.70392855578234 -0.5 L 111.29727677789117 -0.5 Z"/><text text-anchor="middle" pointer-events="none" font-size="8px" fill="#000000" x="87.85196427789117" y="3" transform="rotate(180 87.85196427789117 0)" font-family="sans-serif">DIRECTED</text></g><g class="relationship" transform="translate(126.17564047009793 -93.5258736921923) rotate(469.3878558389648)"><path class="outline" fill="#A5ABB6" stroke="none" d="M 25 0.5 L 68.04692220018154 0.5 L 68.04692220018154 -0.5 L 25 -0.5 Z M 114.93754720018154 0.5 L 157.98446940036308 0.5 L 157.98446940036308 3.5 L 164.98446940036308 0 L 157.98446940036308 -3.5 L 157.98446940036308 -0.5 L 114.93754720018154 -0.5 Z"/><text text-anchor="middle" pointer-events="none" font-size="8px" fill="#000000" x="91.49223470018154" y="3" transform="rotate(180 91.49223470018154 0)" font-family="sans-serif">DIRECTED</text></g><g class="relationship" transform="translate(223.3531344304506 -216.86590970295114) rotate(422.75867582045686)"><path class="outline" fill="#A5ABB6" stroke="none" d="M 25 0.5 L 45.47305598045055 0.5 L 45.47305598045055 -0.5 L 25 -0.5 Z M 92.36368098045055 0.5 L 112.8367369609011 0.5 L 112.8367369609011 3.5 L 119.8367369609011 0 L 112.8367369609011 -3.5 L 112.8367369609011 -0.5 L 92.36368098045055 -0.5 Z"/><text text-anchor="middle" pointer-events="none" font-size="8px" fill="#000000" x="68.91836848045055" y="3" font-family="sans-serif">DIRECTED</text></g></g><g class="layer nodes"><g class="node" aria-label="graph-node105" transform="translate(171.71123718438324,64.38104855076924)"><circle class="outline" cx="0" cy="0" r="25" fill="#F79767" stroke="#f36924" stroke-width="2px"/><text class="caption" text-anchor="middle" pointer-events="none" x="0" y="0" font-size="10px" fill="#FFFFFF" font-family="sans-serif"> Cloud</text><text class="caption" text-anchor="middle" pointer-events="none" x="0" y="10" font-size="10px" fill="#FFFFFF" font-family="sans-serif"> Atlas</text></g><g class="node" aria-label="graph-node108" transform="translate(121.01486197942423,203.7625631907074)"><circle class="outline" cx="0" cy="0" r="25" fill="#C990C0" stroke="#b261a5" stroke-width="2px"/><text class="caption" text-anchor="middle" pointer-events="none" x="0" y="0" font-size="10px" fill="#FFFFFF" font-family="sans-serif"> Tom</text><text class="caption" text-anchor="middle" pointer-events="none" x="0" y="10" font-size="10px" fill="#FFFFFF" font-family="sans-serif"> Tykwer</text></g><g class="node" aria-label="graph-node6" transform="translate(58.01013023246389,-21.942386835022187)"><circle class="outline" cx="0" cy="0" r="25" fill="#C990C0" stroke="#b261a5" stroke-width="2px"/><text class="caption" text-anchor="middle" pointer-events="none" x="0" y="0" font-size="10px" fill="#FFFFFF" font-family="sans-serif"> Lana</text><text class="caption" text-anchor="middle" pointer-events="none" x="0" y="10" font-size="10px" fill="#FFFFFF" font-family="sans-serif"> Wach…</text></g><g class="node" aria-label="graph-node5" transform="translate(126.17564047009793,-93.5258736921923)"><circle class="outline" cx="0" cy="0" r="25" fill="#C990C0" stroke="#b261a5" stroke-width="2px"/><text class="caption" text-anchor="middle" pointer-events="none" x="0" y="0" font-size="10px" fill="#FFFFFF" font-family="sans-serif"> Lilly</text><text class="caption" text-anchor="middle" pointer-events="none" x="0" y="10" font-size="10px" fill="#FFFFFF" font-family="sans-serif"> Wach…</text></g><g class="node" aria-label="graph-node116" transform="translate(289.65060007131973,-88.09352748114463)"><circle class="outline" cx="0" cy="0" r="25" fill="#F79767" stroke="#f36924" stroke-width="2px"/><text class="caption" text-anchor="middle" pointer-events="none" x="0" y="0" font-size="10px" fill="#FFFFFF" font-family="sans-serif"> V for</text><text class="caption" text-anchor="middle" pointer-events="none" x="0" y="10" font-size="10px" fill="#FFFFFF" font-family="sans-serif"> Vende…</text></g><g class="node" aria-label="graph-node25" transform="translate(223.3531344304506,-216.86590970295114)"><circle class="outline" cx="0" cy="0" r="25" fill="#C990C0" stroke="#b261a5" stroke-width="2px"/><text class="caption" text-anchor="middle" pointer-events="none" x="0" y="0" font-size="10px" fill="#FFFFFF" font-family="sans-serif"> James</text><text class="caption" text-anchor="middle" pointer-events="none" x="0" y="10" font-size="10px" fill="#FFFFFF" font-family="sans-serif"> Marsh…</text></g><g class="node" aria-label="graph-node10" transform="translate(-4.868941402319127,-163.94209798979372)"><circle class="outline" cx="0" cy="0" r="25" fill="#F79767" stroke="#f36924" stroke-width="2px"/><text class="caption" text-anchor="middle" pointer-events="none" x="0" y="-5" font-size="10px" fill="#FFFFFF" font-family="sans-serif"> The</text><text class="caption" text-anchor="middle" pointer-events="none" x="0" y="5" font-size="10px" fill="#FFFFFF" font-family="sans-serif"> Matrix</text><text class="caption" text-anchor="middle" pointer-events="none" x="0" y="15" font-size="10px" fill="#FFFFFF" font-family="sans-serif"> Rev…</text></g><g class="node" aria-label="graph-node9" transform="translate(-55.91281088542209,-78.54183576295448)"><circle class="outline" cx="0" cy="0" r="25" fill="#F79767" stroke="#f36924" stroke-width="2px"/><text class="caption" text-anchor="middle" pointer-events="none" x="0" y="-5" font-size="10px" fill="#FFFFFF" font-family="sans-serif"> The</text><text class="caption" text-anchor="middle" pointer-events="none" x="0" y="5" font-size="10px" fill="#FFFFFF" font-family="sans-serif"> Matrix</text><text class="caption" text-anchor="middle" pointer-events="none" x="0" y="15" font-size="10px" fill="#FFFFFF" font-family="sans-serif"> Rel…</text></g><g class="node" aria-label="graph-node0" transform="translate(63.108167436809886,85.68515403359521)"><circle class="outline" cx="0" cy="0" r="25" fill="#F79767" stroke="#f36924" stroke-width="2px"/><text class="caption" text-anchor="middle" pointer-events="none" x="0" y="0" font-size="10px" fill="#FFFFFF" font-family="sans-serif"> The</text><text class="caption" text-anchor="middle" pointer-events="none" x="0" y="10" font-size="10px" fill="#FFFFFF" font-family="sans-serif"> Matrix</text></g></g></svg>