<svg xmlns="http://www.w3.org/2000/svg" width="329.5799560546875" height="320.57196044921875" viewBox="-156.49337768554688 -94.89447021484375 329.5799560546875 320.57196044921875"><title>Neo4j Graph Visualization</title><desc>Created using Neo4j (http://www.neo4j.com/)</desc><g class="layer relationships"><g class="relationship" transform="translate(-70.15577367618829 -37.77644330848286) rotate(413.0297458624468)"><path class="outline" fill="#A5ABB6" stroke="none" d="M 25 0.5 L 46.61654671223248 0.5 L 46.61654671223248 -0.5 L 25 -0.5 Z M 93.50717171223248 0.5 L 115.12371842446495 0.5 L 115.12371842446495 3.5 L 122.12371842446495 0 L 115.12371842446495 -3.5 L 115.12371842446495 -0.5 L 93.50717171223248 -0.5 Z"/><text text-anchor="middle" pointer-events="none" font-size="8px" fill="#000000" x="70.06185921223248" y="3" font-family="sans-serif">DIRECTED</text></g><g class="relationship" transform="translate(-127.49337173358732 67.54461374774566) rotate(364.7915929560011)"><path class="outline" fill="#A5ABB6" stroke="none" d="M 25 0.5 L 51.77790704197443 0.5 L 51.77790704197443 -0.5 L 25 -0.5 Z M 87.55134454197443 0.5 L 114.32925158394886 0.5 L 114.32925158394886 3.5 L 121.32925158394886 0 L 114.32925158394886 -3.5 L 114.32925158394886 -0.5 L 87.55134454197443 -0.5 Z"/><text text-anchor="middle" pointer-events="none" font-size="8px" fill="#000000" x="69.66462579197443" y="3" font-family="sans-serif">WROTE</text></g><g class="relationship" transform="translate(39.1075862124618 -65.89446807062221) rotate(458.12016541288597)"><path class="outline" fill="#A5ABB6" stroke="none" d="M 25 0.5 L 52.181981712782374 0.5 L 52.181981712782374 -0.5 L 25 -0.5 Z M 87.95541921278237 0.5 L 115.13740092556475 0.5 L 115.13740092556475 3.5 L 122.13740092556475 0 L 115.13740092556475 -3.5 L 115.13740092556475 -0.5 L 87.95541921278237 -0.5 Z"/><text text-anchor="middle" pointer-events="none" font-size="8px" fill="#000000" x="70.06870046278237" y="3" transform="rotate(180 70.06870046278237 0)" font-family="sans-serif">WROTE</text></g><g class="relationship" transform="translate(142.20809047307927 2.23613970243326) rotate(507.95992951511715)"><path class="outline" fill="#A5ABB6" stroke="none" d="M 25 0.5 L 46.791141608632 0.5 L 46.791141608632 -0.5 L 25 -0.5 Z M 92.353641608632 0.5 L 114.144783217264 0.5 L 114.144783217264 3.5 L 121.144783217264 0 L 114.144783217264 -3.5 L 114.144783217264 -0.5 L 92.353641608632 -0.5 Z"/><text text-anchor="middle" pointer-events="none" font-size="8px" fill="#000000" x="69.572391608632" y="3" transform="rotate(180 69.572391608632 0)" font-family="sans-serif">ACTED_IN</text></g><g class="relationship" transform="translate(-67.07977970194817 196.6774782833006) rotate(306.14866819037707)"><path class="outline" fill="#A5ABB6" stroke="none" d="M 25 0.5 L 46.10966008432659 0.5 L 46.10966008432659 -0.5 L 25 -0.5 Z M 91.67216008432659 0.5 L 112.78182016865318 0.5 L 112.78182016865318 3.5 L 119.78182016865318 0 L 112.78182016865318 -3.5 L 112.78182016865318 -0.5 L 91.67216008432659 -0.5 Z"/><text text-anchor="middle" pointer-events="none" font-size="8px" fill="#000000" x="68.89091008432659" y="3" font-family="sans-serif">ACTED_IN</text></g><g class="relationship" transform="translate(144.0865938974818 151.15414489074274) rotate(209.5805650925107)"><path class="outline" fill="#A5ABB6" stroke="none" d="M 25 0.5 L 46.02388385294317 0.5 L 46.02388385294317 -0.5 L 25 -0.5 Z M 91.58638385294317 0.5 L 112.61026770588634 0.5 L 112.61026770588634 3.5 L 119.61026770588634 0 L 112.61026770588634 -3.5 L 112.61026770588634 -0.5 L 91.58638385294317 -0.5 Z"/><text text-anchor="middle" pointer-events="none" font-size="8px" fill="#000000" x="68.80513385294317" y="3" transform="rotate(180 68.80513385294317 0)" font-family="sans-serif">ACTED_IN</text></g></g><g class="layer nodes"><g class="node" aria-label="graph-node179" transform="translate(18.324477644619627,79.76773412812142)"><circle class="outline" cx="0" cy="0" r="25" fill="#F79767" stroke="#f36924" stroke-width="2px"/><text class="caption" text-anchor="middle" pointer-events="none" x="0" y="-5" font-size="10px" fill="#FFFFFF" font-family="sans-serif"> Captain</text><text class="caption" text-anchor="middle" pointer-events="none" x="0" y="5" font-size="10px" fill="#FFFFFF" font-family="sans-serif"> America:</text><text class="caption" text-anchor="middle" pointer-events="none" x="0" y="15" font-size="10px" fill="#FFFFFF" font-family="sans-serif"> Th</text></g><g class="node" aria-label="graph-node185" transform="translate(144.0865938974818,151.15414489074274)"><circle class="outline" cx="0" cy="0" r="25" fill="#C990C0" stroke="#b261a5" stroke-width="2px"/><text class="caption" text-anchor="middle" pointer-events="none" x="0" y="0" font-size="10px" fill="#FFFFFF" font-family="sans-serif"> Hayley</text><text class="caption" text-anchor="middle" pointer-events="none" x="0" y="10" font-size="10px" fill="#FFFFFF" font-family="sans-serif"> Atwell</text></g><g class="node" aria-label="graph-node183" transform="translate(142.20809047307927,2.23613970243326)"><circle class="outline" cx="0" cy="0" r="25" fill="#C990C0" stroke="#b261a5" stroke-width="2px"/><text class="caption" text-anchor="middle" pointer-events="none" x="0" y="0" font-size="10px" fill="#FFFFFF" font-family="sans-serif"> Chris</text><text class="caption" text-anchor="middle" pointer-events="none" x="0" y="10" font-size="10px" fill="#FFFFFF" font-family="sans-serif"> Evans</text></g><g class="node" aria-label="graph-node182" transform="translate(39.1075862124618,-65.89446807062221)"><circle class="outline" cx="0" cy="0" r="25" fill="#C990C0" stroke="#b261a5" stroke-width="2px"/><text class="caption" text-anchor="middle" pointer-events="none" x="0" y="0" font-size="10px" fill="#FFFFFF" font-family="sans-serif"> Stephen</text><text class="caption" text-anchor="middle" pointer-events="none" x="0" y="10" font-size="10px" fill="#FFFFFF" font-family="sans-serif"> McFe…</text></g><g class="node" aria-label="graph-node180" transform="translate(-70.15577367618829,-37.77644330848286)"><circle class="outline" cx="0" cy="0" r="25" fill="#C990C0" stroke="#b261a5" stroke-width="2px"/><text class="caption" text-anchor="middle" pointer-events="none" x="0" y="0" font-size="10px" fill="#FFFFFF" font-family="sans-serif"> Joe</text><text class="caption" text-anchor="middle" pointer-events="none" x="0" y="10" font-size="10px" fill="#FFFFFF" font-family="sans-serif"> Johnst…</text></g><g class="node" aria-label="graph-node181" transform="translate(-127.49337173358732,67.54461374774566)"><circle class="outline" cx="0" cy="0" r="25" fill="#C990C0" stroke="#b261a5" stroke-width="2px"/><text class="caption" text-anchor="middle" pointer-events="none" x="0" y="5" font-size="10px" fill="#FFFFFF" font-family="sans-serif"> Christop…</text></g><g class="node" aria-label="graph-node184" transform="translate(-67.07977970194817,196.6774782833006)"><circle class="outline" cx="0" cy="0" r="25" fill="#C990C0" stroke="#b261a5" stroke-width="2px"/><text class="caption" text-anchor="middle" pointer-events="none" x="0" y="0" font-size="10px" fill="#FFFFFF" font-family="sans-serif"> Samuel L.</text><text class="caption" text-anchor="middle" pointer-events="none" x="0" y="10" font-size="10px" fill="#FFFFFF" font-family="sans-serif"> Jackson</text></g></g></svg>