<svg xmlns="http://www.w3.org/2000/svg" width="265.7353515625" height="240.83053588867188" viewBox="-275.763427734375 -140.34681701660156 265.7353515625 240.83053588867188"><title>Neo4j Graph Visualization</title><desc>Created using Neo4j (http://www.neo4j.com/)</desc><g class="layer relationships"><g class="relationship" transform="translate(-102.1042813992765 -110.80060323050574) rotate(527.465381892719)"><path class="outline" fill="#A5ABB6" stroke="none" d="M 21.40063509461097,12.933012701892217 L 21.90063509461097,12.06698729810778 A 101.69755087286497 101.69755087286497 0 0 0 60.848955968265685,24.993191241790967 L 60.73193786448013,25.986321023534742 A 102.69755087286497 102.69755087286497 0 0 1 21.40063509461097,12.933012701892217 Z M 80.12851511392964,26.426427963289285 L 80.0566623334089,25.42901271479373 A 101.69755087286497 101.69755087286497 0 0 0 119.55118752631024,14.282671294482737 L 118.17057088627605,11.619234099191527 L 125.9959770886621,11.50513866695151 L 121.39200971302249,17.833920888204354 L 120.0113930729883,15.170483692913143 A 102.69755087286497 102.69755087286497 0 0 1 80.12851511392964,26.426427963289285"/><text text-anchor="middle" pointer-events="none" font-size="8px" fill="#000000" x="70.43115214874277" y="29.165578438836576" transform="rotate(180 70.43115214874277 26.165578438836576)" font-family="sans-serif">trek</text></g><g class="relationship" transform="translate(-246.76343743855247 -78.63872935212855) rotate(448.5720844932839)"><path class="outline" fill="#A5ABB6" stroke="none" d="M 25 0.5 L 61.91656975562056 0.5 L 61.91656975562056 -0.5 L 25 -0.5 Z M 81.25250725562056 0.5 L 118.16907701124111 0.5 L 118.16907701124111 3.5 L 125.16907701124111 0 L 118.16907701124111 -3.5 L 118.16907701124111 -0.5 L 81.25250725562056 -0.5 Z"/><text text-anchor="middle" pointer-events="none" font-size="8px" fill="#000000" x="71.58453850562056" y="3" font-family="sans-serif">trek</text></g><g class="relationship" transform="translate(-243.02133707189623 71.48371525644399) rotate(343.6302125136814)"><path class="outline" fill="#A5ABB6" stroke="none" d="M 25 0.5 L 93.13802333662176 0.5 L 93.13802333662176 -0.5 L 25 -0.5 Z M 112.47396083662176 0.5 L 180.6119841732435 0.5 L 180.6119841732435 3.5 L 187.6119841732435 0 L 180.6119841732435 -3.5 L 180.6119841732435 -0.5 L 112.47396083662176 -0.5 Z"/><text text-anchor="middle" pointer-events="none" font-size="8px" fill="#000000" x="102.80599208662176" y="3" font-family="sans-serif">trek</text></g><g class="relationship" transform="translate(-102.1042813992765 -110.80060323050574) rotate(527.465381892719)"><path class="outline" fill="#A5ABB6" stroke="none" d="M 25 0.5 L 59.58978414971108 0.5 L 59.58978414971108 -0.5 L 25 -0.5 Z M 81.60150289971108 0.5 L 116.19128704942216 0.5 L 116.19128704942216 3.5 L 123.19128704942216 0 L 116.19128704942216 -3.5 L 116.19128704942216 -0.5 L 81.60150289971108 -0.5 Z"/><text text-anchor="middle" pointer-events="none" font-size="8px" fill="#000000" x="70.59564352471108" y="3" transform="rotate(180 70.59564352471108 0)" font-family="sans-serif">road</text></g><g class="relationship" transform="translate(-102.1042813992765 -110.80060323050574) rotate(527.465381892719)"><path class="outline" fill="#A5ABB6" stroke="none" d="M 21.40063509461097,-12.933012701892217 L 21.90063509461097,-12.06698729810778 A 101.69755087286497 101.69755087286497 0 0 1 40.30710614414299,-20.37839364933386 L 39.98809841870172,-21.32614576413434 A 102.69755087286497 102.69755087286497 0 0 0 21.40063509461097,-12.933012701892217 Z M 101.06237559303635,-22.711916711205916 L 100.78668289324604,-21.750670886620796 A 101.69755087286497 101.69755087286497 0 0 1 119.55118752631024,-14.282671294482737 L 118.17057088627605,-11.619234099191527 L 125.9959770886621,-11.50513866695151 L 121.39200971302249,-17.833920888204354 L 120.0113930729883,-15.170483692913143 A 102.69755087286497 102.69755087286497 0 0 0 101.06237559303635,-22.711916711205916"/><text text-anchor="middle" pointer-events="none" font-size="8px" fill="#000000" x="70.43115214874277" y="-23.165578438836576" transform="rotate(180 70.43115214874277 -26.165578438836576)" font-family="sans-serif">PublicTransport</text></g></g><g class="layer nodes"><g class="node" aria-label="graph-node1" transform="translate(-102.1042813992765,-110.80060323050574)"><circle class="outline" cx="0" cy="0" r="25" fill="#57C7E3" stroke="#23b3d7" stroke-width="2px"/><text class="caption" text-anchor="middle" pointer-events="none" x="0" y="5" font-size="10px" fill="#2A2C34" font-family="sans-serif"> Darjeeling</text></g><g class="node" aria-label="graph-node3" transform="translate(-39.02806400162132,11.562096819023537)"><circle class="outline" cx="0" cy="0" r="25" fill="#F16667" stroke="#eb2728" stroke-width="2px"/><text class="caption" text-anchor="middle" pointer-events="none" x="0" y="5" font-size="10px" fill="#FFFFFF" font-family="sans-serif"> Sandakp…</text></g><g class="node" aria-label="graph-node0" transform="translate(-246.76343743855247,-78.63872935212855)"><circle class="outline" cx="0" cy="0" r="25" fill="#57C7E3" stroke="#23b3d7" stroke-width="2px"/><text class="caption" text-anchor="middle" pointer-events="none" x="0" y="5" font-size="10px" fill="#2A2C34" font-family="sans-serif"> Rimbik</text></g><g class="node" aria-label="graph-node2" transform="translate(-243.02133707189623,71.48371525644399)"><circle class="outline" cx="0" cy="0" r="25" fill="#D9C8AE" stroke="#c0a378" stroke-width="2px"/><text class="caption" text-anchor="middle" pointer-events="none" x="0" y="5" font-size="10px" fill="#2A2C34" font-family="sans-serif"> BhikeBh…</text></g></g></svg>