<svg xmlns="http://www.w3.org/2000/svg" width="297.6470031738281" height="228.9818115234375" viewBox="-142.79351806640625 -144.05767822265625 297.6470031738281 228.9818115234375"><title>Neo4j Graph Visualization</title><desc>Created using Neo4j (http://www.neo4j.com/)</desc><g class="layer relationships"><g class="relationship" transform="translate(125.85348301093605 -18.334513745208703) rotate(222.18712232607737)"><path class="outline" fill="#A5ABB6" stroke="none" d="M 21.40063509461097,12.933012701892217 L 21.90063509461097,12.06698729810778 A 97.45730202167617 97.45730202167617 0 0 0 58.767932890306604,24.399284972381906 L 58.64622468610756,25.391850896152533 A 98.45730202167617 98.45730202167617 0 0 1 21.40063509461097,12.933012701892217 Z M 78.04404825386716,25.844192273492624 L 77.96873883550847,24.847032059932886 A 97.45730202167617 97.45730202167617 0 0 0 115.3708083060611,14.24663527474753 L 113.99354294146089,11.581463588819464 L 121.81908646732661,11.477211371668398 L 117.20716212552803,17.800197522651622 L 115.82989676092782,15.135025836723555 A 98.45730202167617 98.45730202167617 0 0 1 78.04404825386716,25.844192273492624"/><text text-anchor="middle" pointer-events="none" font-size="8px" fill="#000000" x="68.34562278130393" y="28.59716702322295" transform="rotate(180 68.34562278130393 25.59716702322295)" font-family="sans-serif">trek</text></g><g class="relationship" transform="translate(19.134506569110464 -115.05767461363169) rotate(514.8592537743589)"><path class="outline" fill="#A5ABB6" stroke="none" d="M 25 0.5 L 60.251270637160204 0.5 L 60.251270637160204 -0.5 L 25 -0.5 Z M 79.5872081371602 0.5 L 114.83847877432041 0.5 L 114.83847877432041 3.5 L 121.83847877432041 0 L 114.83847877432041 -3.5 L 114.83847877432041 -0.5 L 79.5872081371602 -0.5 Z"/><text text-anchor="middle" pointer-events="none" font-size="8px" fill="#000000" x="69.9192393871602" y="3" transform="rotate(180 69.9192393871602 0)" font-family="sans-serif">trek</text></g><g class="relationship" transform="translate(-113.79350764239561 -52.674328386115285) rotate(408.90367706580577)"><path class="outline" fill="#A5ABB6" stroke="none" d="M 25 0.5 L 58.884620504250776 0.5 L 58.884620504250776 -0.5 L 25 -0.5 Z M 78.22055800425078 0.5 L 112.10517850850155 0.5 L 112.10517850850155 3.5 L 119.10517850850155 0 L 112.10517850850155 -3.5 L 112.10517850850155 -0.5 L 78.22055800425078 -0.5 Z"/><text text-anchor="middle" pointer-events="none" font-size="8px" fill="#000000" x="68.55258925425078" y="3" font-family="sans-serif">trek</text></g><g class="relationship" transform="translate(125.85348301093605 -18.334513745208703) rotate(222.18712232607737)"><path class="outline" fill="#A5ABB6" stroke="none" d="M 25 0.5 L 57.508565883363616 0.5 L 57.508565883363616 -0.5 L 25 -0.5 Z M 79.52028463336362 0.5 L 112.02885051672723 0.5 L 112.02885051672723 3.5 L 119.02885051672723 0 L 112.02885051672723 -3.5 L 112.02885051672723 -0.5 L 79.52028463336362 -0.5 Z"/><text text-anchor="middle" pointer-events="none" font-size="8px" fill="#000000" x="68.51442525836362" y="3" transform="rotate(180 68.51442525836362 0)" font-family="sans-serif">road</text></g><g class="relationship" transform="translate(125.85348301093605 -18.334513745208703) rotate(222.18712232607737)"><path class="outline" fill="#A5ABB6" stroke="none" d="M 21.40063509461097,-12.933012701892217 L 21.90063509461097,-12.06698729810778 A 97.45730202167617 97.45730202167617 0 0 1 38.277081817635825,-19.597225994802173 L 37.945118961937055,-20.540518453394057 A 98.45730202167617 98.45730202167617 0 0 0 21.40063509461097,-12.933012701892217 Z M 98.94878758283932,-21.96307410198959 L 98.66115527019322,-21.0053331909276 A 97.45730202167617 97.45730202167617 0 0 1 115.3708083060611,-14.24663527474753 L 113.99354294146089,-11.581463588819464 L 121.81908646732661,-11.477211371668398 L 117.20716212552803,-17.800197522651622 L 115.82989676092782,-15.135025836723555 A 98.45730202167617 98.45730202167617 0 0 0 98.94878758283932,-21.96307410198959"/><text text-anchor="middle" pointer-events="none" font-size="8px" fill="#000000" x="68.34562278130394" y="-22.59716702322295" transform="rotate(180 68.34562278130394 -25.59716702322295)" font-family="sans-serif">PublicTransport</text></g></g><g class="layer nodes"><g class="node" aria-label="graph-node1" transform="translate(125.85348301093605,-18.334513745208703)"><circle class="outline" cx="0" cy="0" r="25" fill="#57C7E3" stroke="#23b3d7" stroke-width="2px"/><text class="caption" text-anchor="middle" pointer-events="none" x="0" y="5" font-size="10px" fill="#2A2C34" font-family="sans-serif"> Darjeeling</text></g><g class="node" aria-label="graph-node3" transform="translate(-19.069299818574258,55.92413810911936)"><circle class="outline" cx="0" cy="0" r="25" fill="#F16667" stroke="#eb2728" stroke-width="2px"/><text class="caption" text-anchor="middle" pointer-events="none" x="0" y="5" font-size="10px" fill="#FFFFFF" font-family="sans-serif"> Sandakp…</text></g><g class="node" aria-label="graph-node0" transform="translate(19.134506569110464,-115.05767461363169)"><circle class="outline" cx="0" cy="0" r="25" fill="#57C7E3" stroke="#23b3d7" stroke-width="2px"/><text class="caption" text-anchor="middle" pointer-events="none" x="0" y="5" font-size="10px" fill="#2A2C34" font-family="sans-serif"> Rimbik</text></g><g class="node" aria-label="graph-node2" transform="translate(-113.79350764239561,-52.674328386115285)"><circle class="outline" cx="0" cy="0" r="25" fill="#D9C8AE" stroke="#c0a378" stroke-width="2px"/><text class="caption" text-anchor="middle" pointer-events="none" x="0" y="5" font-size="10px" fill="#2A2C34" font-family="sans-serif"> BhikeBh…</text></g></g></svg>