<svg xmlns="http://www.w3.org/2000/svg" width="663.350830078125" height="79.30157470703125" viewBox="-277.93084716796875 -43.57927703857422 663.350830078125 79.30157470703125"><title>Neo4j Graph Visualization</title><desc>Created using Neo4j (http://www.neo4j.com/)</desc><g class="layer relationships"><g class="relationship" transform="translate(196.57216387427536 -5.996427748346569) rotate(356.9265187902415)"><path class="outline" fill="#A5ABB6" stroke="none" d="M 25 0.5 L 59.31636706509197 0.5 L 59.31636706509197 -0.5 L 25 -0.5 Z M 93.76167956509197 0.5 L 128.07804663018393 0.5 L 128.07804663018393 3.5 L 135.07804663018393 0 L 128.07804663018393 -3.5 L 128.07804663018393 -0.5 L 93.76167956509197 -0.5 Z"/><text text-anchor="middle" pointer-events="none" font-size="8px" fill="#000000" x="76.53902331509197" y="3" font-family="sans-serif">ORIGIN</text></g><g class="relationship" transform="translate(196.57216387427536 -5.996427748346569) rotate(180.96312356128954)"><path class="outline" fill="#A5ABB6" stroke="none" d="M 25 0.5 L 42.827057314705215 0.5 L 42.827057314705215 -0.5 L 25 -0.5 Z M 102.01455731470521 0.5 L 119.84161462941043 0.5 L 119.84161462941043 3.5 L 126.84161462941043 0 L 119.84161462941043 -3.5 L 119.84161462941043 -0.5 L 102.01455731470521 -0.5 Z"/><text text-anchor="middle" pointer-events="none" font-size="8px" fill="#000000" x="72.42080731470521" y="3" transform="rotate(180 72.42080731470521 0)" font-family="sans-serif">DESTINATION</text></g><g class="relationship" transform="translate(-101.66633139268352 6.722299704706447) rotate(354.04574077398956)"><path class="outline" fill="#A5ABB6" stroke="none" d="M 25 0.5 L 52.88361399573087 0.5 L 52.88361399573087 -0.5 L 25 -0.5 Z M 87.32892649573087 0.5 L 115.21254049146174 0.5 L 115.21254049146174 3.5 L 122.21254049146174 0 L 115.21254049146174 -3.5 L 115.21254049146174 -0.5 L 87.32892649573087 -0.5 Z"/><text text-anchor="middle" pointer-events="none" font-size="8px" fill="#000000" x="70.10627024573087" y="3" font-family="sans-serif">ORIGIN</text></g><g class="relationship" transform="translate(-101.66633139268352 6.722299704706447) rotate(185.40775882194635)"><path class="outline" fill="#A5ABB6" stroke="none" d="M 25 0.5 L 40.867702586395566 0.5 L 40.867702586395566 -0.5 L 25 -0.5 Z M 100.05520258639557 0.5 L 115.92290517279113 0.5 L 115.92290517279113 3.5 L 122.92290517279113 0 L 115.92290517279113 -3.5 L 115.92290517279113 -0.5 L 100.05520258639557 -0.5 Z"/><text text-anchor="middle" pointer-events="none" font-size="8px" fill="#000000" x="70.46145258639557" y="3" transform="rotate(180 70.46145258639557 0)" font-family="sans-serif">DESTINATION</text></g></g><g class="layer nodes"><g class="node" aria-label="graph-node21" transform="translate(356.4199531569102,-14.579275433684913)"><circle class="outline" cx="0" cy="0" r="25" fill="#8DCC93" stroke="#5db665" stroke-width="2px"/><text class="caption" text-anchor="middle" pointer-events="none" x="0" y="5" font-size="10px" fill="#2A2C34" font-family="sans-serif"> MSN</text></g><g class="node" aria-label="graph-node68" transform="translate(-248.93086301659002,-7.218417649504204)"><circle class="outline" cx="0" cy="0" r="25" fill="#8DCC93" stroke="#5db665" stroke-width="2px"/><text class="caption" text-anchor="middle" pointer-events="none" x="0" y="5" font-size="10px" fill="#2A2C34" font-family="sans-serif"> GRR</text></g><g class="node" aria-label="graph-node271" transform="translate(196.57216387427536,-5.996427748346569)"><circle class="outline" cx="0" cy="0" r="25" fill="#ECB5C9" stroke="#da7298" stroke-width="2px"/><text class="caption" text-anchor="middle" pointer-events="none" x="0" y="5" font-size="10px" fill="#2A2C34" font-family="sans-serif"> 11/30/20…</text></g><g class="node" aria-label="graph-node7" transform="translate(44.75200132156059,-8.548716081126981)"><circle class="outline" cx="0" cy="0" r="25" fill="#8DCC93" stroke="#5db665" stroke-width="2px"/><text class="caption" text-anchor="middle" pointer-events="none" x="0" y="5" font-size="10px" fill="#2A2C34" font-family="sans-serif"> ORD</text></g><g class="node" aria-label="graph-node851" transform="translate(-101.66633139268352,6.722299704706447)"><circle class="outline" cx="0" cy="0" r="25" fill="#ECB5C9" stroke="#da7298" stroke-width="2px"/><text class="caption" text-anchor="middle" pointer-events="none" x="0" y="5" font-size="10px" fill="#2A2C34" font-family="sans-serif"> 11/17/20…</text></g></g></svg>