<svg xmlns="http://www.w3.org/2000/svg" width="615.9736328125" height="359.4151306152344" viewBox="-290.5099792480469 -178.9713134765625 615.9736328125 359.4151306152344"><title>Neo4j Graph Visualization</title><desc>Created using Neo4j (http://www.neo4j.com/)</desc><g class="layer relationships"><g class="relationship" transform="translate(5.5911899029871615 -45.12741321520968) rotate(360.24615671179964)"><path class="outline" fill="#A5ABB6" stroke="none" d="M 24.018736134675446,-6.953439040707552 L 24.277555179777966,-5.987513214418485 A 158.15834925399375 158.15834925399375 0 0 1 52.211422536009174,-10.841404784295776 L 52.12922310971268,-11.838020685391342 A 159.15834925399375 159.15834925399375 0 0 0 24.018736134675446,-6.953439040707552 Z M 74.19076294027803,-12.123159447311451 L 74.1343485902067,-11.124752004878246 A 158.15834925399375 158.15834925399375 0 0 1 102.18433413958634,-6.994434883005044 L 101.48302966457206,-4.07755778012173 L 109.10726479214978,-5.844203958452291 L 103.1194067729387,-10.88360435351613 L 102.41810229792442,-7.9667272506328155 A 159.15834925399375 159.15834925399375 0 0 0 74.19076294027803,-12.123159447311451"/><text text-anchor="middle" pointer-events="none" font-size="8px" fill="#000000" x="63.16150795343501" y="-8.863378173142337" font-family="sans-serif">road</text></g><g class="relationship" transform="translate(139.00453262317103 -44.554233269165806) rotate(342.00329410819654)"><path class="outline" fill="#A5ABB6" stroke="none" d="M 21.40063509461097,-12.933012701892217 L 21.90063509461097,-12.06698729810778 A 119.34796258382808 119.34796258382808 0 0 1 56.20065708535412,-25.328079431595 L 55.98805220503748,-26.305217684282695 A 120.34796258382808 120.34796258382808 0 0 0 21.40063509461097,-12.933012701892217 Z M 102.34543516276634,-27.250617370294208 L 102.17284546261439,-26.265623565541375 A 119.34796258382808 119.34796258382808 0 0 1 136.98500953247117,-14.413986298409355 L 135.59218157094583,-11.756914551242353 L 143.41698160278173,-11.606899679378008 L 138.84211348117165,-17.956748627965357 L 137.4492855196463,-15.299676880798355 A 120.34796258382808 120.34796258382808 0 0 0 102.34543516276634,-27.250617370294208"/><text text-anchor="middle" pointer-events="none" font-size="8px" fill="#000000" x="79.13097818964152" y="-25.531667542899427" font-family="sans-serif">twowheeler</text></g><g class="relationship" transform="translate(296.4636736380023 -95.70580119009045) rotate(193.66045629168104)"><path class="outline" fill="#A5ABB6" stroke="none" d="M 21.40063509461097,12.933012701892217 L 21.90063509461097,12.06698729810778 A 142.53690859692477 142.53690859692477 0 0 0 67.59273252512992,28.84986899374961 L 67.41329579453355,29.83363850929321 A 143.53690859692477 143.53690859692477 0 0 1 21.40063509461097,12.933012701892217 Z M 113.8283063733432,30.668794625265278 L 113.68437672359516,29.679206702984786 A 142.53690859692477 142.53690859692477 0 0 0 159.950658649063,14.550953584958545 L 158.54509492707632,11.90059688756196 L 166.36908489665282,11.713031016555718 L 161.82474361171194,18.08476251482066 L 160.41917988972526,15.434405817424075 A 143.53690859692477 143.53690859692477 0 0 1 113.8283063733432,30.668794625265278"/><text text-anchor="middle" pointer-events="none" font-size="8px" fill="#000000" x="90.59580944427273" y="34.64016313341004" transform="rotate(180 90.59580944427273 31.64016313341004)" font-family="sans-serif">twowheeler</text></g><g class="relationship" transform="translate(113.33924368782738 -140.21285054677247) rotate(472.69666862639656)"><path class="outline" fill="#A5ABB6" stroke="none" d="M 25 0.5 L 89.89359453599836 0.5 L 89.89359453599836 -0.5 L 25 -0.5 Z M 109.22953203599836 0.5 L 174.12312657199672 0.5 L 174.12312657199672 3.5 L 181.12312657199672 0 L 174.12312657199672 -3.5 L 174.12312657199672 -0.5 L 109.22953203599836 -0.5 Z"/><text text-anchor="middle" pointer-events="none" font-size="8px" fill="#000000" x="99.56156328599836" y="3" transform="rotate(180 99.56156328599836 0)" font-family="sans-serif">trek</text></g><g class="relationship" transform="translate(296.4636736380023 -95.70580119009045) rotate(193.66045629168104)"><path class="outline" fill="#A5ABB6" stroke="none" d="M 25 0.5 L 79.72183597914555 0.5 L 79.72183597914555 -0.5 L 25 -0.5 Z M 101.73355472914555 0.5 L 156.4553907082911 0.5 L 156.4553907082911 3.5 L 163.4553907082911 0 L 156.4553907082911 -3.5 L 156.4553907082911 -0.5 L 101.73355472914555 -0.5 Z"/><text text-anchor="middle" pointer-events="none" font-size="8px" fill="#000000" x="90.72769535414555" y="3" transform="rotate(180 90.72769535414555 0)" font-family="sans-serif">road</text></g><g class="relationship" transform="translate(296.4636736380023 -95.70580119009045) rotate(193.66045629168104)"><path class="outline" fill="#A5ABB6" stroke="none" d="M 21.40063509461097,-12.933012701892217 L 21.90063509461097,-12.06698729810778 A 142.53690859692477 142.53690859692477 0 0 1 80.98537841750124,-30.64164033215077 L 80.89990083070984,-31.637980425771573 A 143.53690859692477 143.53690859692477 0 0 0 21.40063509461097,-12.933012701892217 Z M 100.28552038647769,-31.986790401941207 L 100.23594128474721,-30.98802020180925 A 142.53690859692477 142.53690859692477 0 0 1 159.950658649063,-14.550953584958545 L 158.54509492707632,-11.90059688756196 L 166.36908489665282,-11.713031016555718 L 161.82474361171194,-18.08476251482066 L 160.41917988972526,-15.434405817424075 A 143.53690859692477 143.53690859692477 0 0 0 100.28552038647769,-31.986790401941207"/><text text-anchor="middle" pointer-events="none" font-size="8px" fill="#000000" x="90.59580944427273" y="-28.64016313341004" transform="rotate(180 90.59580944427273 -31.64016313341004)" font-family="sans-serif">trek</text></g><g class="relationship" transform="translate(139.00453262317103 -44.554233269165806) rotate(342.00329410819654)"><path class="outline" fill="#A5ABB6" stroke="none" d="M 25 0.5 L 68.27376370625336 0.5 L 68.27376370625336 -0.5 L 25 -0.5 Z M 90.28548245625336 0.5 L 133.55924616250672 0.5 L 133.55924616250672 3.5 L 140.55924616250672 0 L 133.55924616250672 -3.5 L 133.55924616250672 -0.5 L 90.28548245625336 -0.5 Z"/><text text-anchor="middle" pointer-events="none" font-size="8px" fill="#000000" x="79.27962308125336" y="3" font-family="sans-serif">road</text></g><g class="relationship" transform="translate(139.00453262317103 -44.554233269165806) rotate(342.00329410819654)"><path class="outline" fill="#A5ABB6" stroke="none" d="M 21.40063509461097,12.933012701892217 L 21.90063509461097,12.06698729810778 A 119.34796258382808 119.34796258382808 0 0 0 69.53388966622191,27.44764908470738 L 69.43300208959616,28.442546917091477 A 120.34796258382808 120.34796258382808 0 0 1 21.40063509461097,12.933012701892217 Z M 88.82452428118071,28.838012273881077 L 88.76428306280856,27.839828425279507 A 119.34796258382808 119.34796258382808 0 0 0 136.98500953247117,14.413986298409355 L 135.59218157094583,11.756914551242353 L 143.41698160278173,11.606899679378008 L 138.84211348117165,17.956748627965357 L 137.4492855196463,15.299676880798355 A 120.34796258382808 120.34796258382808 0 0 1 88.82452428118071,28.838012273881077"/><text text-anchor="middle" pointer-events="none" font-size="8px" fill="#000000" x="79.13097818964151" y="31.531667542899427" font-family="sans-serif">trek</text></g><g class="relationship" transform="translate(5.5911899029871615 -45.12741321520968) rotate(360.24615671179964)"><path class="outline" fill="#A5ABB6" stroke="none" d="M 24.018736134675446,6.953439040707552 L 24.277555179777966,5.987513214418485 A 158.15834925399375 158.15834925399375 0 0 0 53.54103007463658,10.945426693178746 L 53.46723746053115,11.942700301625052 A 159.15834925399375 159.15834925399375 0 0 1 24.018736134675446,6.953439040707552 Z M 72.8504900865001,12.193223007573948 L 72.80249673890876,11.19437535222957 A 158.15834925399375 158.15834925399375 0 0 0 102.18433413958634,6.994434883005044 L 101.48302966457206,4.07755778012173 L 109.10726479214978,5.844203958452291 L 103.1194067729387,10.88360435351613 L 102.41810229792442,7.9667272506328155 A 159.15834925399375 159.15834925399375 0 0 1 72.8504900865001,12.193223007573948"/><text text-anchor="middle" pointer-events="none" font-size="8px" fill="#000000" x="63.16150795343508" y="14.863378173142337" font-family="sans-serif">trek</text></g><g class="relationship" transform="translate(5.5911899029871615 -45.12741321520968) rotate(240.5488883178108)"><path class="outline" fill="#A5ABB6" stroke="none" d="M 21.40063509461097,12.933012701892217 L 21.90063509461097,12.06698729810778 A 73.28775224657211 73.28775224657211 0 0 0 46.96304094017521,20.964804152659624 L 46.80501357649299,21.95223888585855 A 74.28775224657211 74.28775224657211 0 0 1 21.40063509461097,12.933012701892217 Z M 66.20889403015507,22.489253410268716 L 66.10572247656143,21.494589833711757 A 73.28775224657211 73.28775224657211 0 0 0 91.62189344528353,13.996566718259196 L 90.26788621160145,11.31950407216057 L 98.09404082512735,11.28339361401742 L 93.42723642352632,17.56598357972403 L 92.07322918984424,14.888920933625403 A 74.28775224657211 74.28775224657211 0 0 1 66.20889403015507,22.489253410268716"/><text text-anchor="middle" pointer-events="none" font-size="8px" fill="#000000" x="56.50317065927277" y="25.3574420316436" transform="rotate(180 56.50317065927277 22.3574420316436)" font-family="sans-serif">trek</text></g><g class="relationship" transform="translate(-53.60859513093129 -149.971310832196) rotate(523.0240546236689)"><path class="outline" fill="#A5ABB6" stroke="none" d="M 24.018736134675446,-6.953439040707552 L 24.277555179777966,-5.987513214418485 A 322.5848894477159 322.5848894477159 0 0 1 81.99223344826768,-15.947833063085056 L 81.91232755178567,-16.944635474652898 A 323.5848894477159 323.5848894477159 0 0 0 24.018736134675446,-6.953439040707552 Z M 128.40746564606997,-17.320467122805837 L 128.3436839365774,-16.322503248943576 A 322.5848894477159 322.5848894477159 0 0 1 186.2118335888705,-7.296467854440045 L 185.4823217494409,-4.386517257585858 L 193.12330362143518,-6.079265328580009 L 187.1845160414433,-11.17640198357896 L 186.4550042020137,-8.266451386724773 A 323.5848894477159 323.5848894477159 0 0 0 128.40746564606997,-17.320467122805837"/><text text-anchor="middle" pointer-events="none" font-size="8px" fill="#000000" x="105.15717884187455" y="-14.468772290546951" transform="rotate(180 105.15717884187455 -17.46877229054695)" font-family="sans-serif">twowheeler</text></g><g class="relationship" transform="translate(-261.50998907313596 -86.50490600042063) rotate(392.96366604267234)"><path class="outline" fill="#A5ABB6" stroke="none" d="M 24.018736134675446,-6.953439040707552 L 24.277555179777966,-5.987513214418485 A 214.1375442402649 214.1375442402649 0 0 1 54.281597070466404,-11.770071273625632 L 54.16289377198431,-12.763001043009865 A 215.1375442402649 215.1375442402649 0 0 0 24.018736134675446,-6.953439040707552 Z M 100.64240712184372,-13.26237724469675 L 100.54506485043704,-12.26712628026749 A 214.1375442402649 214.1375442402649 0 0 1 130.66642192986956,-7.13055590893909 L 129.95240432669704,-4.216764759532569 L 137.58427087901353,-5.950146693104309 L 131.61844540076623,-11.015610774814451 L 130.9044277975937,-8.10181962540793 A 215.1375442402649 215.1375442402649 0 0 0 100.64240712184372,-13.26237724469675"/><text text-anchor="middle" pointer-events="none" font-size="8px" fill="#000000" x="77.39449577998442" y="-10.771685966563865" font-family="sans-serif">twowheeler</text></g><g class="relationship" transform="translate(-125.70197501210971 1.5674573011323734) rotate(376.87318901172017)"><path class="outline" fill="#A5ABB6" stroke="none" d="M 24.018736134675446,6.953439040707552 L 24.277555179777966,5.987513214418485 A 223.5830019647985 223.5830019647985 0 0 0 56.68449885408886,12.151521600617457 L 56.570623491598724,13.145016644297954 A 224.5830019647985 224.5830019647985 0 0 1 24.018736134675446,6.953439040707552 Z M 103.05322594347903,13.63055312537756 L 102.96012837371151,12.634896134992147 A 223.5830019647985 223.5830019647985 0 0 0 135.48875990591642,7.149175732244474 L 134.773003361085,4.235811256499811 L 142.40590310679252,5.964637873595249 L 136.44310196569165,11.033661699904023 L 135.72734542086022,8.120297224159362 A 224.5830019647985 224.5830019647985 0 0 1 103.05322594347903,13.63055312537756"/><text text-anchor="middle" pointer-events="none" font-size="8px" fill="#000000" x="79.80455109128962" y="17.09369546196058" font-family="sans-serif">twowheeler</text></g><g class="relationship" transform="translate(-125.70197501210971 1.5674573011323734) rotate(376.87318901172017)"><path class="outline" fill="#A5ABB6" stroke="none" d="M 24.018736134675446,-6.953439040707552 L 24.277555179777966,-5.987513214418485 A 223.5830019647985 223.5830019647985 0 0 1 70.16906883242834,-13.284946274099866 L 70.11550471837766,-14.283510686486949 A 224.5830019647985 224.5830019647985 0 0 0 24.018736134675446,-6.953439040707552 Z M 89.4875183421122,-14.485862078839233 L 89.4548247543143,-13.48639665706773 A 223.5830019647985 223.5830019647985 0 0 1 135.48875990591642,-7.149175732244474 L 134.773003361085,-4.235811256499811 L 142.40590310679252,-5.964637873595249 L 136.44310196569165,-11.033661699904023 L 135.72734542086022,-8.120297224159362 A 224.5830019647985 224.5830019647985 0 0 0 89.4875183421122,-14.485862078839233"/><text text-anchor="middle" pointer-events="none" font-size="8px" fill="#000000" x="79.80455109128953" y="-11.093695461960579" font-family="sans-serif">trek</text></g><g class="relationship" transform="translate(-261.50998907313596 -86.50490600042063) rotate(392.96366604267234)"><path class="outline" fill="#A5ABB6" stroke="none" d="M 24.018736134675446,6.953439040707552 L 24.277555179777966,5.987513214418485 A 214.1375442402649 214.1375442402649 0 0 0 67.76057147587596,12.950943294667667 L 67.70481358219538,13.94938761324147 A 215.1375442402649 215.1375442402649 0 0 1 24.018736134675446,6.953439040707552 Z M 87.07812319000651,14.157534580986805 L 87.04383027606896,13.15812275593484 A 214.1375442402649 214.1375442402649 0 0 0 130.66642192986956,7.13055590893909 L 129.95240432669704,4.216764759532569 L 137.58427087901353,5.950146693104309 L 131.61844540076623,11.015610774814451 L 130.9044277975937,8.10181962540793 A 215.1375442402649 215.1375442402649 0 0 1 87.07812319000651,14.157534580986805"/><text text-anchor="middle" pointer-events="none" font-size="8px" fill="#000000" x="77.39449577998445" y="16.771685966563865" font-family="sans-serif">trek</text></g><g class="relationship" transform="translate(-53.60859513093129 -149.971310832196) rotate(523.0240546236689)"><path class="outline" fill="#A5ABB6" stroke="none" d="M 24.018736134675446,6.953439040707552 L 24.277555179777966,5.987513214418485 A 322.5848894477159 322.5848894477159 0 0 0 95.51113671621438,16.746362744985333 L 95.47313886846675,17.74564056599735 A 323.5848894477159 323.5848894477159 0 0 1 24.018736134675446,6.953439040707552 Z M 114.83547771309078,17.90215111781714 L 114.81363859231473,16.902389619856876 A 322.5848894477159 322.5848894477159 0 0 0 186.2118335888705,7.296467854440045 L 185.4823217494409,4.386517257585858 L 193.12330362143518,6.079265328580009 L 187.1845160414433,11.17640198357896 L 186.4550042020137,8.266451386724773 A 323.5848894477159 323.5848894477159 0 0 1 114.83547771309078,17.90215111781714"/><text text-anchor="middle" pointer-events="none" font-size="8px" fill="#000000" x="105.15717884187455" y="20.46877229054695" transform="rotate(180 105.15717884187455 17.46877229054695)" font-family="sans-serif">trek</text></g><g class="relationship" transform="translate(-53.60859513093129 -149.971310832196) rotate(363.34525516156475)"><path class="outline" fill="#A5ABB6" stroke="none" d="M 25 0.5 L 70.44842981122186 0.5 L 70.44842981122186 -0.5 L 25 -0.5 Z M 89.78436731122186 0.5 L 135.2327971224437 0.5 L 135.2327971224437 3.5 L 142.2327971224437 0 L 135.2327971224437 -3.5 L 135.2327971224437 -0.5 L 89.78436731122186 -0.5 Z"/><text text-anchor="middle" pointer-events="none" font-size="8px" fill="#000000" x="80.11639856122186" y="3" font-family="sans-serif">trek</text></g><g class="relationship" transform="translate(5.5911899029871615 -45.12741321520968) rotate(240.5488883178108)"><path class="outline" fill="#A5ABB6" stroke="none" d="M 25 0.5 L 45.69558872964127 0.5 L 45.69558872964127 -0.5 L 25 -0.5 Z M 67.70730747964127 0.5 L 88.40289620928255 0.5 L 88.40289620928255 3.5 L 95.40289620928255 0 L 88.40289620928255 -3.5 L 88.40289620928255 -0.5 L 67.70730747964127 -0.5 Z"/><text text-anchor="middle" pointer-events="none" font-size="8px" fill="#000000" x="56.70144810464127" y="3" transform="rotate(180 56.70144810464127 0)" font-family="sans-serif">road</text></g><g class="relationship" transform="translate(5.5911899029871615 -45.12741321520968) rotate(240.5488883178108)"><path class="outline" fill="#A5ABB6" stroke="none" d="M 21.40063509461097,-12.933012701892217 L 21.90063509461097,-12.06698729810778 A 73.28775224657211 73.28775224657211 0 0 1 26.93507843535617,-14.71856718517283 L 26.503772633041578,-15.620772984804915 A 74.28775224657211 74.28775224657211 0 0 0 21.40063509461097,-12.933012701892217 Z M 86.82924603460167,-17.29031818149481 L 86.44850043440067,-16.36563835153875 A 73.28775224657211 73.28775224657211 0 0 1 91.62189344528353,-13.996566718259196 L 90.26788621160145,-11.31950407216057 L 98.09404082512735,-11.28339361401742 L 93.42723642352632,-17.56598357972403 L 92.07322918984424,-14.888920933625403 A 74.28775224657211 74.28775224657211 0 0 0 86.82924603460167,-17.29031818149481"/><text text-anchor="middle" pointer-events="none" font-size="8px" fill="#000000" x="56.503170659272755" y="-19.3574420316436" transform="rotate(180 56.503170659272755 -22.3574420316436)" font-family="sans-serif">PublicTransport</text></g><g class="relationship" transform="translate(-53.60859513093129 -149.971310832196) rotate(388.6918678520269)"><path class="outline" fill="#A5ABB6" stroke="none" d="M 25 0.5 L 96.6188442390244 0.5 L 96.6188442390244 -0.5 L 25 -0.5 Z M 115.9547817390244 0.5 L 187.5736259780488 0.5 L 187.5736259780488 3.5 L 194.5736259780488 0 L 187.5736259780488 -3.5 L 187.5736259780488 -0.5 L 115.9547817390244 -0.5 Z"/><text text-anchor="middle" pointer-events="none" font-size="8px" fill="#000000" x="106.2868129890244" y="3" font-family="sans-serif">trek</text></g><g class="relationship" transform="translate(-261.50998907313596 -86.50490600042063) rotate(441.83634438866153)"><path class="outline" fill="#A5ABB6" stroke="none" d="M 24.018736134675446,-6.953439040707552 L 24.277555179777966,-5.987513214418485 A 235.47603817247858 235.47603817247858 0 0 1 59.71380476250279,-12.625351262109376 L 59.60547342671347,-13.619466105417786 A 236.47603817247858 236.47603817247858 0 0 0 24.018736134675446,-6.953439040707552 Z M 106.09121665600651,-14.08861109524014 L 106.0029710210865,-13.092512351180318 A 235.47603817247858 235.47603817247858 0 0 1 141.5659703315235,-7.17121532414343 L 140.84815548830596,-4.25835730308291 L 148.48227485453427,-5.981790360145978 L 142.52305678914684,-11.055026018890791 L 141.8052419459293,-8.14216799783027 A 236.47603817247858 236.47603817247858 0 0 0 106.09121665600651,-14.08861109524014"/><text text-anchor="middle" pointer-events="none" font-size="8px" fill="#000000" x="82.84183444538667" y="-11.499148106454896" font-family="sans-serif">twowheeler</text></g><g class="relationship" transform="translate(-236.9784407508145 84.50056278707183) rotate(323.3032491624934)"><path class="outline" fill="#A5ABB6" stroke="none" d="M 21.40063509461097,12.933012701892217 L 21.90063509461097,12.06698729810778 A 92.10537994131242 92.10537994131242 0 0 0 42.939309853716765,20.945057462599735 L 42.66772946148029,21.90747322023917 A 93.10537994131242 93.10537994131242 0 0 1 21.40063509461097,12.933012701892217 Z M 88.88146208573697,23.024179708470072 L 88.65668305542034,22.049769944802904 A 92.10537994131242 92.10537994131242 0 0 0 110.09961149872389,14.198223266571878 L 108.72684848117883,11.530729743119462 L 116.5525568897037,11.439691812875475 L 111.92996218878396,17.754881297841766 L 110.5571991712389,15.08738777438935 A 93.10537994131242 93.10537994131242 0 0 1 88.88146208573697,23.024179708470072"/><text text-anchor="middle" pointer-events="none" font-size="8px" fill="#000000" x="65.71626597677981" y="27.87974423333344" font-family="sans-serif">twowheeler</text></g><g class="relationship" transform="translate(-236.9784407508145 84.50056278707183) rotate(323.3032491624934)"><path class="outline" fill="#A5ABB6" stroke="none" d="M 25 0.5 L 54.88497541757023 0.5 L 54.88497541757023 -0.5 L 25 -0.5 Z M 76.89669416757023 0.5 L 106.78166958514046 0.5 L 106.78166958514046 3.5 L 113.78166958514046 0 L 106.78166958514046 -3.5 L 106.78166958514046 -0.5 L 76.89669416757023 -0.5 Z"/><text text-anchor="middle" pointer-events="none" font-size="8px" fill="#000000" x="65.89083479257023" y="3" font-family="sans-serif">road</text></g><g class="relationship" transform="translate(-236.9784407508145 84.50056278707183) rotate(323.3032491624934)"><path class="outline" fill="#A5ABB6" stroke="none" d="M 21.40063509461097,-12.933012701892217 L 21.90063509461097,-12.06698729810778 A 92.10537994131242 92.10537994131242 0 0 1 56.1449488106595,-23.646685336126865 L 56.01674374530792,-24.638433016345076 A 93.10537994131242 93.10537994131242 0 0 0 21.40063509461097,-12.933012701892217 Z M 75.41612304172529,-25.107198716447627 L 75.33596872646271,-24.110416249835794 A 92.10537994131242 92.10537994131242 0 0 1 110.09961149872389,-14.198223266571878 L 108.72684848117883,-11.530729743119462 L 116.5525568897037,-11.439691812875475 L 111.92996218878396,-17.754881297841766 L 110.5571991712389,-15.08738777438935 A 93.10537994131242 93.10537994131242 0 0 0 75.41612304172529,-25.107198716447627"/><text text-anchor="middle" pointer-events="none" font-size="8px" fill="#000000" x="65.71626597677981" y="-21.87974423333344" font-family="sans-serif">trek</text></g><g class="relationship" transform="translate(-261.50998907313596 -86.50490600042063) rotate(441.83634438866153)"><path class="outline" fill="#A5ABB6" stroke="none" d="M 24.018736134675446,6.953439040707552 L 24.277555179777966,5.987513214418485 A 235.47603817247858 235.47603817247858 0 0 0 73.20458063905909,13.704249478746732 L 73.15354080511962,14.702946097020487 A 236.47603817247858 236.47603817247858 0 0 1 24.018736134675446,6.953439040707552 Z M 92.52404158454071,14.89843772003681 L 92.49316825328542,13.898914414947228 A 235.47603817247858 235.47603817247858 0 0 0 141.5659703315235,7.17121532414343 L 140.84815548830596,4.25835730308291 L 148.48227485453427,5.981790360145978 L 142.52305678914684,11.055026018890791 L 141.8052419459293,8.14216799783027 A 236.47603817247858 236.47603817247858 0 0 1 92.52404158454071,14.89843772003681"/><text text-anchor="middle" pointer-events="none" font-size="8px" fill="#000000" x="82.84183444538674" y="17.499148106454896" font-family="sans-serif">trek</text></g><g class="relationship" transform="translate(-236.9784407508145 84.50056278707183) rotate(384.5413528112046)"><path class="outline" fill="#A5ABB6" stroke="none" d="M 25 0.5 L 67.41861376940034 0.5 L 67.41861376940034 -0.5 L 25 -0.5 Z M 86.75455126940034 0.5 L 129.17316503880068 0.5 L 129.17316503880068 3.5 L 136.17316503880068 0 L 129.17316503880068 -3.5 L 129.17316503880068 -0.5 L 86.75455126940034 -0.5 Z"/><text text-anchor="middle" pointer-events="none" font-size="8px" fill="#000000" x="77.08658251940034" y="3" font-family="sans-serif">trek</text></g><g class="relationship" transform="translate(-90.36538027802035 151.44381956044134) rotate(320.7380419818619)"><path class="outline" fill="#A5ABB6" stroke="none" d="M 25 0.5 L 67.01919567470709 0.5 L 67.01919567470709 -0.5 L 25 -0.5 Z M 86.35513317470709 0.5 L 128.37432884941418 0.5 L 128.37432884941418 3.5 L 135.37432884941418 0 L 128.37432884941418 -3.5 L 128.37432884941418 -0.5 L 86.35513317470709 -0.5 Z"/><text text-anchor="middle" pointer-events="none" font-size="8px" fill="#000000" x="76.68716442470709" y="3" font-family="sans-serif">trek</text></g></g><g class="layer nodes"><g class="node" aria-label="graph-node1" transform="translate(5.5911899029871615,-45.12741321520968)"><circle class="outline" cx="0" cy="0" r="25" fill="#57C7E3" stroke="#23b3d7" stroke-width="2px"/><text class="caption" text-anchor="middle" pointer-events="none" x="0" y="5" font-size="10px" fill="#2A2C34" font-family="sans-serif"> Darjeeling</text></g><g class="node" aria-label="graph-node3" transform="translate(33.806140164272875,49.94820948321092)"><circle class="outline" cx="0" cy="0" r="25" fill="#F16667" stroke="#eb2728" stroke-width="2px"/><text class="caption" text-anchor="middle" pointer-events="none" x="0" y="5" font-size="10px" fill="#FFFFFF" font-family="sans-serif"> Sandakp…</text></g><g class="node" aria-label="graph-node6" transform="translate(139.00453262317103,-44.554233269165806)"><circle class="outline" cx="0" cy="0" r="25" fill="#D9C8AE" stroke="#c0a378" stroke-width="2px"/><text class="caption" text-anchor="middle" pointer-events="none" x="0" y="5" font-size="10px" fill="#2A2C34" font-family="sans-serif"> Tumbling</text></g><g class="node" aria-label="graph-node7" transform="translate(296.4636736380023,-95.70580119009045)"><circle class="outline" cx="0" cy="0" r="25" fill="#D9C8AE" stroke="#c0a378" stroke-width="2px"/><text class="caption" text-anchor="middle" pointer-events="none" x="0" y="5" font-size="10px" fill="#2A2C34" font-family="sans-serif"> Gairibus</text></g><g class="node" aria-label="graph-node2" transform="translate(113.33924368782738,-140.21285054677247)"><circle class="outline" cx="0" cy="0" r="25" fill="#D9C8AE" stroke="#c0a378" stroke-width="2px"/><text class="caption" text-anchor="middle" pointer-events="none" x="0" y="5" font-size="10px" fill="#2A2C34" font-family="sans-serif"> BhikeBh…</text></g><g class="node" aria-label="graph-node0" transform="translate(-53.60859513093129,-149.971310832196)"><circle class="outline" cx="0" cy="0" r="25" fill="#57C7E3" stroke="#23b3d7" stroke-width="2px"/><text class="caption" text-anchor="middle" pointer-events="none" x="0" y="5" font-size="10px" fill="#2A2C34" font-family="sans-serif"> Rimbik</text></g><g class="node" aria-label="graph-node4" transform="translate(-261.50998907313596,-86.50490600042063)"><circle class="outline" cx="0" cy="0" r="25" fill="#D9C8AE" stroke="#c0a378" stroke-width="2px"/><text class="caption" text-anchor="middle" pointer-events="none" x="0" y="5" font-size="10px" fill="#2A2C34" font-family="sans-serif"> Sirikhola</text></g><g class="node" aria-label="graph-node5" transform="translate(-125.70197501210971,1.5674573011323734)"><circle class="outline" cx="0" cy="0" r="25" fill="#D9C8AE" stroke="#c0a378" stroke-width="2px"/><text class="caption" text-anchor="middle" pointer-events="none" x="0" y="5" font-size="10px" fill="#2A2C34" font-family="sans-serif"> Gurdum</text></g><g class="node" aria-label="graph-node8" transform="translate(-236.9784407508145,84.50056278707183)"><circle class="outline" cx="0" cy="0" r="25" fill="#D9C8AE" stroke="#c0a378" stroke-width="2px"/><text class="caption" text-anchor="middle" pointer-events="none" x="0" y="5" font-size="10px" fill="#2A2C34" font-family="sans-serif"> Rammam</text></g><g class="node" aria-label="graph-node9" transform="translate(-90.36538027802035,151.44381956044134)"><circle class="outline" cx="0" cy="0" r="25" fill="#F16667" stroke="#eb2728" stroke-width="2px"/><text class="caption" text-anchor="middle" pointer-events="none" x="0" y="5" font-size="10px" fill="#FFFFFF" font-family="sans-serif"> Sabargr…</text></g></g></svg>